<?xml version="1.0" encoding="UTF-8" standalone="no"?>
<!-- Created with Inkscape (http://www.inkscape.org/) -->

<svg
   width="210mm"
   height="297mm"
   viewBox="0 0 210 297"
   version="1.1"
   id="svg5"
   inkscape:version="1.3 (0e150ed6c4, 2023-07-21)"
   sodipodi:docname="logo_legacy_e_variants.svg"
   xml:space="preserve"
   xmlns:inkscape="http://www.inkscape.org/namespaces/inkscape"
   xmlns:sodipodi="http://sodipodi.sourceforge.net/DTD/sodipodi-0.dtd"
   xmlns="http://www.w3.org/2000/svg"
   xmlns:svg="http://www.w3.org/2000/svg"><sodipodi:namedview
     id="namedview7"
     pagecolor="#ffffff"
     bordercolor="#cccccc"
     borderopacity="1"
     inkscape:pageshadow="0"
     inkscape:pageopacity="1"
     inkscape:pagecheckerboard="0"
     inkscape:document-units="mm"
     showgrid="false"
     inkscape:zoom="0.5"
     inkscape:cx="144"
     inkscape:cy="449"
     inkscape:window-width="1920"
     inkscape:window-height="1001"
     inkscape:window-x="-9"
     inkscape:window-y="-9"
     inkscape:window-maximized="1"
     inkscape:current-layer="layer1"
     showguides="true"
     inkscape:showpageshadow="0"
     inkscape:deskcolor="#d1d1d1" /><defs
     id="defs2" /><g
     inkscape:label="Layer 1"
     inkscape:groupmode="layer"
     id="layer1"><g
       id="g2"
       transform="translate(-16.273229,-4.0289502)"><g
         id="g8"
         transform="translate(309.03333,103.71667)"><path
           style="fill:none;stroke:#e93d3d;stroke-width:4;stroke-linecap:round;stroke-linejoin:round;stroke-miterlimit:4;stroke-dasharray:none;stroke-opacity:1"
           d="M -116.40834,50.8125 V 37.31275 l 16,-5e-4 V 50.8125 h -16 v 9.49942 l 16,5.8e-4"
           id="path2-5"
           sodipodi:nodetypes="ccccccc" /><g
           id="g25133-8-6"
           transform="translate(-260.28334,-176.68808)"><path
             style="fill:none;stroke:#e93d3d;stroke-width:4;stroke-linecap:round;stroke-linejoin:round;stroke-miterlimit:4;stroke-dasharray:none;stroke-opacity:1"
             d="m 112,214.00029 8,4.3e-4 v 22.99971 l -8,-0.001 16,5.8e-4"
             id="path25127-8-4"
             sodipodi:nodetypes="ccccc" /><path
             style="fill:none;stroke:#e93d3d;stroke-width:4;stroke-linecap:round;stroke-linejoin:round;stroke-miterlimit:4;stroke-dasharray:none;stroke-opacity:1"
             d="m 120,202.50058 v 2.875"
             id="path25129-9-1"
             sodipodi:nodetypes="cc" /></g><ellipse
           style="fill:#e93d3d;fill-opacity:1;stroke-width:0.345562"
           id="path8-2"
           cx="-124.85901"
           cy="60.312347"
           rx="1.9840021"
           ry="2.0000021" /><ellipse
           style="fill:#e93d3d;fill-opacity:1;stroke-width:0.345562"
           id="ellipse8-4"
           cx="-93.109024"
           cy="60.312347"
           rx="1.9840021"
           ry="2.0000021" /></g><path
         style="fill:none;stroke:#e93d3d;stroke-width:4;stroke-linecap:round;stroke-linejoin:round;stroke-miterlimit:4;stroke-dasharray:none;stroke-opacity:1"
         d="M 192.62499,106.90416 V 93.404415 l 16,-5e-4 v 10.624755 h -16 v 12.37491 l 16,5.8e-4"
         id="path9"
         sodipodi:nodetypes="ccccccc" /><g
         id="g11"
         transform="translate(48.749993,-120.59641)"><path
           style="fill:none;stroke:#e93d3d;stroke-width:4;stroke-linecap:round;stroke-linejoin:round;stroke-miterlimit:4;stroke-dasharray:none;stroke-opacity:1"
           d="m 112,214.00029 8,4.3e-4 v 22.99971 l -8,-0.001 16,5.8e-4"
           id="path10"
           sodipodi:nodetypes="ccccc" /><path
           style="fill:none;stroke:#e93d3d;stroke-width:4;stroke-linecap:round;stroke-linejoin:round;stroke-miterlimit:4;stroke-dasharray:none;stroke-opacity:1"
           d="m 120,202.50058 v 2.875"
           id="path11"
           sodipodi:nodetypes="cc" /></g><ellipse
         style="fill:#e93d3d;fill-opacity:1;stroke-width:0.345562"
         id="ellipse11"
         cx="184.17433"
         cy="116.40401"
         rx="1.9840021"
         ry="2.0000021" /><ellipse
         style="fill:#e93d3d;fill-opacity:1;stroke-width:0.345562"
         id="ellipse12"
         cx="215.92432"
         cy="116.40401"
         rx="1.9840021"
         ry="2.0000021" /><path
         style="fill:none;stroke:#e93d3d;stroke-width:4;stroke-linecap:round;stroke-linejoin:round;stroke-miterlimit:4;stroke-dasharray:none;stroke-opacity:1"
         d="m 192.62499,202.15417 v -13.49975 l 16,-5e-4 v 12.06225 h -16 v 10.93742 l 16,5.8e-4"
         id="path53"
         sodipodi:nodetypes="ccccccc" /><g
         id="g55"
         transform="translate(48.749993,-25.346413)"><path
           style="fill:none;stroke:#e93d3d;stroke-width:4;stroke-linecap:round;stroke-linejoin:round;stroke-miterlimit:4;stroke-dasharray:none;stroke-opacity:1"
           d="m 112,214.00029 8,4.3e-4 v 22.99971 l -8,-0.001 16,5.8e-4"
           id="path54"
           sodipodi:nodetypes="ccccc" /><path
           style="fill:none;stroke:#e93d3d;stroke-width:4;stroke-linecap:round;stroke-linejoin:round;stroke-miterlimit:4;stroke-dasharray:none;stroke-opacity:1"
           d="m 120,202.50058 v 2.875"
           id="path55"
           sodipodi:nodetypes="cc" /></g><ellipse
         style="fill:#e93d3d;fill-opacity:1;stroke-width:0.345562"
         id="ellipse55"
         cx="184.17433"
         cy="211.65401"
         rx="1.9840021"
         ry="2.0000021" /><ellipse
         style="fill:#e93d3d;fill-opacity:1;stroke-width:0.345562"
         id="ellipse56"
         cx="215.9243"
         cy="211.65401"
         rx="1.9840021"
         ry="2.0000021" /><g
         id="g1"
         transform="matrix(0.42520911,0,0,0.42520911,212.6175,268.03258)"><path
           style="fill:none;stroke:#6abebe;stroke-width:6.76616;stroke-linecap:round;stroke-linejoin:round;stroke-miterlimit:4;stroke-dasharray:none;stroke-opacity:1"
           d="m -434.54825,-421.34431 5.90563,-22.83536 27.06485,-8.5e-4 -5.27678,20.40377 h -27.06463 l -4.7847,18.50107 27.06437,9.9e-4"
           id="path64"
           sodipodi:nodetypes="ccccccc" /><path
           style="fill:none;stroke:#ffc18e;stroke-width:6.76616;stroke-linecap:round;stroke-linejoin:round;stroke-miterlimit:4;stroke-dasharray:none;stroke-opacity:1"
           d="m -360.33448,-421.34431 5.90563,-22.83536 27.06485,-8.5e-4 -5.27678,20.40377 h -27.06463 l -4.7847,18.50107 27.06437,9.9e-4"
           id="path80"
           sodipodi:nodetypes="ccccccc" /><path
           style="fill:none;stroke:#7cdf7c;stroke-width:6.76616;stroke-linecap:round;stroke-linejoin:round;stroke-miterlimit:4;stroke-dasharray:none;stroke-opacity:1"
           d="m -283.83173,-421.34145 5.90563,-22.8353 27.06485,-9e-4 -5.27678,20.4038 h -27.06463 l -4.7847,18.5011 27.06437,10e-4"
           id="path88"
           sodipodi:nodetypes="ccccccc" /><path
           style="fill:none;stroke:#ff8e8e;stroke-width:6.76616;stroke-linecap:round;stroke-linejoin:round;stroke-miterlimit:4;stroke-dasharray:none;stroke-opacity:1"
           d="m -209.61784,-421.34145 5.9056,-22.8353 27.0648,-9e-4 -5.2767,20.4038 h -27.0647 l -4.7847,18.5011 27.0644,10e-4"
           id="path96"
           sodipodi:nodetypes="ccccccc" /><path
           style="fill:none;stroke:#3d9b9b;stroke-width:6.76616;stroke-linecap:round;stroke-linejoin:round;stroke-miterlimit:4;stroke-dasharray:none;stroke-opacity:1"
           d="m -434.54825,-347.46174 5.90563,-22.8354 27.06485,-8e-4 -5.27678,20.4038 h -27.06463 l -4.7847,18.501 27.06437,0.001"
           id="path138"
           sodipodi:nodetypes="ccccccc" /><path
           style="fill:none;stroke:#ffab65;stroke-width:6.76616;stroke-linecap:round;stroke-linejoin:round;stroke-miterlimit:4;stroke-dasharray:none;stroke-opacity:1"
           d="m -360.33448,-347.46174 5.90563,-22.8354 27.06485,-8e-4 -5.27678,20.4038 h -27.06463 l -4.7847,18.501 27.06437,0.001"
           id="path146"
           sodipodi:nodetypes="ccccccc" /><path
           style="fill:none;stroke:#51cd51;stroke-width:6.76616;stroke-linecap:round;stroke-linejoin:round;stroke-miterlimit:4;stroke-dasharray:none;stroke-opacity:1"
           d="m -283.83173,-347.45884 5.90563,-22.8353 27.06485,-9e-4 -5.27678,20.4038 h -27.06463 l -4.7847,18.5011 27.06437,10e-4"
           id="path154"
           sodipodi:nodetypes="ccccccc" /><path
           style="fill:none;stroke:#ff6565;stroke-width:6.76616;stroke-linecap:round;stroke-linejoin:round;stroke-miterlimit:4;stroke-dasharray:none;stroke-opacity:1"
           d="m -209.61784,-347.45884 5.9056,-22.8353 27.0648,-9e-4 -5.2767,20.4038 h -27.0647 l -4.7847,18.5011 27.0644,10e-4"
           id="path162"
           sodipodi:nodetypes="ccccccc" /><path
           style="fill:none;stroke:#258c8c;stroke-width:6.76616;stroke-linecap:round;stroke-linejoin:round;stroke-miterlimit:4;stroke-dasharray:none;stroke-opacity:1"
           d="m -434.54825,-268.27746 5.90563,-22.8354 27.06485,-8e-4 -5.27678,20.4038 h -27.06463 l -4.7847,18.501 27.06437,10e-4"
           id="path170"
           sodipodi:nodetypes="ccccccc" /><path
           style="fill:none;stroke:#e98b3d;stroke-width:6.76616;stroke-linecap:round;stroke-linejoin:round;stroke-miterlimit:4;stroke-dasharray:none;stroke-opacity:1"
           d="m -360.33448,-268.27746 5.90563,-22.8354 27.06485,-8e-4 -5.27678,20.4038 h -27.06463 l -4.7847,18.501 27.06437,10e-4"
           id="path178"
           sodipodi:nodetypes="ccccccc" /><path
           style="fill:none;stroke:#31ba31;stroke-width:6.76616;stroke-linecap:round;stroke-linejoin:round;stroke-miterlimit:4;stroke-dasharray:none;stroke-opacity:1"
           d="m -283.83173,-268.27456 5.90563,-22.8353 27.06485,-9e-4 -5.27678,20.4038 h -27.06463 l -4.7847,18.5011 27.06437,0.001"
           id="path186"
           sodipodi:nodetypes="ccccccc" /><path
           style="fill:none;stroke:#e93d3d;stroke-width:6.76616;stroke-linecap:round;stroke-linejoin:round;stroke-miterlimit:4;stroke-dasharray:none;stroke-opacity:1"
           d="m -209.61784,-268.27456 5.9056,-22.8353 27.0648,-9e-4 -5.2767,20.4038 h -27.0647 l -4.7847,18.5011 27.0644,0.001"
           id="path194"
           sodipodi:nodetypes="ccccccc" /><path
           style="fill:none;stroke:#0e7b7b;stroke-width:6.76616;stroke-linecap:round;stroke-linejoin:round;stroke-miterlimit:4;stroke-dasharray:none;stroke-opacity:1"
           d="m -434.54825,-194.37475 5.90563,-22.8354 27.06485,-8e-4 -5.27678,20.4038 h -27.06463 l -4.7847,18.501 27.06437,0.001"
           id="path202"
           sodipodi:nodetypes="ccccccc" /><path
           style="fill:none;stroke:#cd6a18;stroke-width:6.76616;stroke-linecap:round;stroke-linejoin:round;stroke-miterlimit:4;stroke-dasharray:none;stroke-opacity:1"
           d="m -360.33448,-194.37475 5.90563,-22.8354 27.06485,-8e-4 -5.27678,20.4038 h -27.06463 l -4.7847,18.501 27.06437,0.001"
           id="path210"
           sodipodi:nodetypes="ccccccc" /><path
           style="fill:none;stroke:#13a413;stroke-width:6.76616;stroke-linecap:round;stroke-linejoin:round;stroke-miterlimit:4;stroke-dasharray:none;stroke-opacity:1"
           d="m -283.83173,-194.37185 5.90563,-22.8353 27.06485,-9e-4 -5.27678,20.4038 h -27.06463 l -4.7847,18.5011 h 27.06437"
           id="path218"
           sodipodi:nodetypes="ccccccc" /><path
           style="fill:none;stroke:#cd1818;stroke-width:6.76616;stroke-linecap:round;stroke-linejoin:round;stroke-miterlimit:4;stroke-dasharray:none;stroke-opacity:1"
           d="m -209.61784,-194.37185 5.9056,-22.8353 27.0648,-9e-4 -5.2767,20.4038 h -27.0647 l -4.7847,18.5011 h 27.0644"
           id="path226"
           sodipodi:nodetypes="ccccccc" /><path
           style="fill:none;stroke:#046161;stroke-width:6.76616;stroke-linecap:round;stroke-linejoin:round;stroke-miterlimit:4;stroke-dasharray:none;stroke-opacity:1"
           d="m -434.54825,-115.17027 5.90563,-22.8354 27.06485,-8e-4 -5.27678,20.4038 h -27.06463 l -4.7847,18.501003 27.06437,0.001"
           id="path234"
           sodipodi:nodetypes="ccccccc" /><path
           style="fill:none;stroke:#a24d07;stroke-width:6.76616;stroke-linecap:round;stroke-linejoin:round;stroke-miterlimit:4;stroke-dasharray:none;stroke-opacity:1"
           d="m -360.33448,-115.17027 5.90563,-22.8354 27.06485,-8e-4 -5.27678,20.4038 h -27.06463 l -4.7847,18.501003 27.06437,0.001"
           id="path242"
           sodipodi:nodetypes="ccccccc" /><path
           style="fill:none;stroke:#068206;stroke-width:6.76616;stroke-linecap:round;stroke-linejoin:round;stroke-miterlimit:4;stroke-dasharray:none;stroke-opacity:1"
           d="m -283.83173,-115.16737 5.90563,-22.8353 27.06485,-9e-4 -5.27678,20.4038 h -27.06463 l -4.7847,18.501103 h 27.06437"
           id="path250"
           sodipodi:nodetypes="ccccccc" /><path
           style="fill:none;stroke:#a20707;stroke-width:6.76616;stroke-linecap:round;stroke-linejoin:round;stroke-miterlimit:4;stroke-dasharray:none;stroke-opacity:1"
           d="m -209.61784,-115.16737 5.9056,-22.8353 27.0648,-9e-4 -5.2767,20.4038 h -27.0647 l -4.7847,18.501103 h 27.0644"
           id="path258"
           sodipodi:nodetypes="ccccccc" /></g></g></g></svg>
