%TF.GenerationSoftware,KiCad,Pcbnew,(6.0.5)*%
%TF.CreationDate,2024-02-04T14:23:38-06:00*%
%TF.ProjectId,i281_mux,69323831-5f6d-4757-982e-6b696361645f,rev?*%
%TF.SameCoordinates,Original*%
%TF.FileFunction,Copper,L1,Top*%
%TF.FilePolarity,Positive*%
%FSLAX46Y46*%
G04 Gerber Fmt 4.6, Leading zero omitted, Abs format (unit mm)*
G04 Created by KiCad (PCBNEW (6.0.5)) date 2024-02-04 14:23:38*
%MOMM*%
%LPD*%
G01*
G04 APERTURE LIST*
%TA.AperFunction,ComponentPad*%
%ADD10C,1.600000*%
%TD*%
%TA.AperFunction,ComponentPad*%
%ADD11O,1.600000X1.600000*%
%TD*%
%TA.AperFunction,ComponentPad*%
%ADD12R,1.700000X1.700000*%
%TD*%
%TA.AperFunction,ComponentPad*%
%ADD13O,1.700000X1.700000*%
%TD*%
%TA.AperFunction,ComponentPad*%
%ADD14R,1.600000X1.600000*%
%TD*%
%TA.AperFunction,ComponentPad*%
%ADD15C,1.800000*%
%TD*%
%TA.AperFunction,ComponentPad*%
%ADD16R,1.800000X1.800000*%
%TD*%
%TA.AperFunction,ViaPad*%
%ADD17C,0.800000*%
%TD*%
%TA.AperFunction,Conductor*%
%ADD18C,0.500000*%
%TD*%
%TA.AperFunction,Conductor*%
%ADD19C,0.250000*%
%TD*%
G04 APERTURE END LIST*
D10*
X148082000Y-111750000D03*
D11*
X155702000Y-111750000D03*
D12*
X144790000Y-111750000D03*
D10*
X160655000Y-87630000D03*
X160655000Y-92630000D03*
X160655000Y-63500000D03*
X160655000Y-68500000D03*
D12*
X165100000Y-104140000D03*
D13*
X165100000Y-106680000D03*
X165100000Y-109220000D03*
X165100000Y-111760000D03*
X144790000Y-105400000D03*
X144790000Y-102860000D03*
X144790000Y-100320000D03*
X144790000Y-97780000D03*
X144790000Y-95240000D03*
X144790000Y-92700000D03*
X144790000Y-90160000D03*
D12*
X144790000Y-87620000D03*
X165100000Y-76200000D03*
D13*
X165100000Y-78740000D03*
X165100000Y-81280000D03*
X165100000Y-83820000D03*
X165100000Y-86360000D03*
X165100000Y-88900000D03*
X165100000Y-91440000D03*
X165100000Y-93980000D03*
X144790000Y-81270000D03*
X144790000Y-78730000D03*
X144790000Y-76190000D03*
X144790000Y-73650000D03*
X144790000Y-71110000D03*
X144790000Y-68570000D03*
X144790000Y-66030000D03*
D12*
X144790000Y-63490000D03*
D11*
X157490000Y-63490000D03*
X157490000Y-66030000D03*
X157490000Y-68570000D03*
X157490000Y-71110000D03*
X157490000Y-73650000D03*
X157490000Y-76190000D03*
X157490000Y-78730000D03*
X157490000Y-81270000D03*
X149870000Y-81270000D03*
X149870000Y-78730000D03*
X149870000Y-76190000D03*
X149870000Y-73650000D03*
X149870000Y-71110000D03*
X149870000Y-68570000D03*
X149870000Y-66030000D03*
D14*
X149870000Y-63490000D03*
D11*
X157500000Y-87610000D03*
X157500000Y-90150000D03*
X157500000Y-92690000D03*
X157500000Y-95230000D03*
X157500000Y-97770000D03*
X157500000Y-100310000D03*
X157500000Y-102850000D03*
X157500000Y-105390000D03*
X149880000Y-105390000D03*
X149880000Y-102850000D03*
X149880000Y-100310000D03*
X149880000Y-97770000D03*
X149880000Y-95230000D03*
X149880000Y-92690000D03*
X149880000Y-90150000D03*
D14*
X149880000Y-87610000D03*
D15*
X158115000Y-111760000D03*
D16*
X160655000Y-111760000D03*
D17*
X160020000Y-71120000D03*
X159805500Y-77470000D03*
X147320000Y-88900000D03*
X153035000Y-95250000D03*
X151765000Y-95250000D03*
X154940000Y-99060000D03*
D18*
X157500000Y-63500000D02*
X157490000Y-63490000D01*
X160655000Y-63500000D02*
X157500000Y-63500000D01*
X162560000Y-63500000D02*
X160655000Y-63500000D01*
D19*
X144790000Y-111750000D02*
X148082000Y-111750000D01*
X144770000Y-111750000D02*
X144790000Y-111750000D01*
X142875000Y-109855000D02*
X144770000Y-111750000D01*
X142875000Y-84455000D02*
X142875000Y-109855000D01*
X143510000Y-83820000D02*
X142875000Y-84455000D01*
X145415000Y-83820000D02*
X143510000Y-83820000D01*
X147320000Y-86995000D02*
X147320000Y-85725000D01*
X147935000Y-87610000D02*
X147320000Y-86995000D01*
X147320000Y-85725000D02*
X145415000Y-83820000D01*
X149880000Y-87610000D02*
X147935000Y-87610000D01*
X154940000Y-69850000D02*
X158750000Y-69850000D01*
X158750000Y-69850000D02*
X160020000Y-71120000D01*
X153680000Y-71110000D02*
X154940000Y-69850000D01*
X149870000Y-71110000D02*
X153680000Y-71110000D01*
X159385000Y-77470000D02*
X159805500Y-77470000D01*
X156210000Y-77470000D02*
X159385000Y-77470000D01*
X154950000Y-78730000D02*
X156210000Y-77470000D01*
X149870000Y-78730000D02*
X154950000Y-78730000D01*
D18*
X163195000Y-64135000D02*
X162560000Y-63500000D01*
X163195000Y-69850000D02*
X163195000Y-64135000D01*
X160655000Y-72390000D02*
X163195000Y-69850000D01*
X160655000Y-87630000D02*
X160655000Y-72390000D01*
D19*
X163195718Y-93980000D02*
X165100000Y-93980000D01*
X159385000Y-97790718D02*
X163195718Y-93980000D01*
X159385000Y-104775000D02*
X159385000Y-97790718D01*
X158770000Y-105390000D02*
X159385000Y-104775000D01*
X157500000Y-105390000D02*
X158770000Y-105390000D01*
X158770000Y-97770000D02*
X165100000Y-91440000D01*
X157500000Y-97770000D02*
X158770000Y-97770000D01*
X162560000Y-88900000D02*
X165100000Y-88900000D01*
X159894511Y-91565489D02*
X162560000Y-88900000D01*
X156876861Y-91565489D02*
X159894511Y-91565489D01*
X155575000Y-92867350D02*
X156876861Y-91565489D01*
X155575000Y-95885000D02*
X155575000Y-92867350D01*
X153670000Y-97790000D02*
X155575000Y-95885000D01*
X152440000Y-97790000D02*
X153670000Y-97790000D01*
X149880000Y-95230000D02*
X152440000Y-97790000D01*
X158105000Y-111750000D02*
X158115000Y-111760000D01*
X155702000Y-111750000D02*
X158105000Y-111750000D01*
D18*
X157520000Y-87630000D02*
X157500000Y-87610000D01*
X160655000Y-87630000D02*
X157520000Y-87630000D01*
D19*
X157490000Y-63490000D02*
X157490000Y-63510000D01*
X151130000Y-72390000D02*
X154930000Y-76190000D01*
X148610000Y-72390000D02*
X151130000Y-72390000D01*
X154930000Y-76190000D02*
X157490000Y-76190000D01*
X147330000Y-71110000D02*
X148610000Y-72390000D01*
X144790000Y-71110000D02*
X147330000Y-71110000D01*
X148570000Y-90150000D02*
X149880000Y-90150000D01*
X147320000Y-88900000D02*
X148570000Y-90150000D01*
X151765000Y-95250000D02*
X151765000Y-86995000D01*
X151765000Y-86995000D02*
X146040000Y-81270000D01*
X146040000Y-81270000D02*
X144790000Y-81270000D01*
X153035000Y-95250000D02*
X153035000Y-86975000D01*
X153035000Y-86975000D02*
X144790000Y-78730000D01*
X151130000Y-101600000D02*
X157500000Y-95230000D01*
X146050000Y-101600000D02*
X151130000Y-101600000D01*
X144790000Y-102860000D02*
X146050000Y-101600000D01*
X151011370Y-102850000D02*
X149880000Y-102850000D01*
X154940000Y-99060000D02*
X154801370Y-99060000D01*
X154801370Y-99060000D02*
X151011370Y-102850000D01*
X147945000Y-63490000D02*
X149870000Y-63490000D01*
X146050000Y-61595000D02*
X147945000Y-63490000D01*
X143510000Y-61595000D02*
X146050000Y-61595000D01*
X142875000Y-62230000D02*
X143510000Y-61595000D01*
X142875000Y-82550000D02*
X142875000Y-62230000D01*
X143510000Y-83185000D02*
X142875000Y-82550000D01*
X146050000Y-83185000D02*
X143510000Y-83185000D01*
X149880000Y-87015000D02*
X146050000Y-83185000D01*
X149880000Y-87610000D02*
X149880000Y-87015000D01*
X147320000Y-95250000D02*
X149880000Y-92690000D01*
X147320000Y-97790000D02*
X147320000Y-95250000D01*
X144790000Y-100320000D02*
X147320000Y-97790000D01*
X154960000Y-102850000D02*
X157500000Y-102850000D01*
X153670000Y-104140000D02*
X154960000Y-102850000D01*
X146050000Y-104140000D02*
X153670000Y-104140000D01*
X144790000Y-105400000D02*
X146050000Y-104140000D01*
X154940000Y-67310000D02*
X156200000Y-68570000D01*
X148590000Y-67310000D02*
X154940000Y-67310000D01*
X147330000Y-68570000D02*
X148590000Y-67310000D01*
X144790000Y-68570000D02*
X147330000Y-68570000D01*
X156200000Y-68570000D02*
X157490000Y-68570000D01*
X144790000Y-66030000D02*
X149870000Y-66030000D01*
%TA.AperFunction,Conductor*%
G36*
X168343621Y-59583502D02*
G01*
X168390114Y-59637158D01*
X168401500Y-59689500D01*
X168401500Y-114935500D01*
X168381498Y-115003621D01*
X168327842Y-115050114D01*
X168275500Y-115061500D01*
X141604500Y-115061500D01*
X141536379Y-115041498D01*
X141489886Y-114987842D01*
X141478500Y-114935500D01*
X141478500Y-84434943D01*
X142236780Y-84434943D01*
X142237526Y-84442835D01*
X142240941Y-84478961D01*
X142241500Y-84490819D01*
X142241500Y-109776233D01*
X142240973Y-109787416D01*
X142239298Y-109794909D01*
X142239547Y-109802835D01*
X142239547Y-109802836D01*
X142241438Y-109862986D01*
X142241500Y-109866945D01*
X142241500Y-109894856D01*
X142241997Y-109898790D01*
X142241997Y-109898791D01*
X142242005Y-109898856D01*
X142242938Y-109910693D01*
X142244327Y-109954889D01*
X142249978Y-109974339D01*
X142253987Y-109993700D01*
X142256526Y-110013797D01*
X142259445Y-110021168D01*
X142259445Y-110021170D01*
X142272804Y-110054912D01*
X142276649Y-110066142D01*
X142288982Y-110108593D01*
X142293015Y-110115412D01*
X142293017Y-110115417D01*
X142299293Y-110126028D01*
X142307988Y-110143776D01*
X142315448Y-110162617D01*
X142320110Y-110169033D01*
X142320110Y-110169034D01*
X142341436Y-110198387D01*
X142347952Y-110208307D01*
X142370458Y-110246362D01*
X142384779Y-110260683D01*
X142397619Y-110275716D01*
X142409528Y-110292107D01*
X142415634Y-110297158D01*
X142443605Y-110320298D01*
X142452384Y-110328288D01*
X143394595Y-111270499D01*
X143428621Y-111332811D01*
X143431500Y-111359594D01*
X143431500Y-112648134D01*
X143438255Y-112710316D01*
X143489385Y-112846705D01*
X143576739Y-112963261D01*
X143693295Y-113050615D01*
X143829684Y-113101745D01*
X143891866Y-113108500D01*
X145688134Y-113108500D01*
X145750316Y-113101745D01*
X145886705Y-113050615D01*
X146003261Y-112963261D01*
X146090615Y-112846705D01*
X146141745Y-112710316D01*
X146148500Y-112648134D01*
X146148500Y-112509500D01*
X146168502Y-112441379D01*
X146222158Y-112394886D01*
X146274500Y-112383500D01*
X146862606Y-112383500D01*
X146930727Y-112403502D01*
X146965819Y-112437229D01*
X147072643Y-112589789D01*
X147075802Y-112594300D01*
X147237700Y-112756198D01*
X147242208Y-112759355D01*
X147242211Y-112759357D01*
X147305671Y-112803792D01*
X147425251Y-112887523D01*
X147430233Y-112889846D01*
X147430238Y-112889849D01*
X147627775Y-112981961D01*
X147632757Y-112984284D01*
X147638065Y-112985706D01*
X147638067Y-112985707D01*
X147848598Y-113042119D01*
X147848600Y-113042119D01*
X147853913Y-113043543D01*
X148082000Y-113063498D01*
X148310087Y-113043543D01*
X148315400Y-113042119D01*
X148315402Y-113042119D01*
X148525933Y-112985707D01*
X148525935Y-112985706D01*
X148531243Y-112984284D01*
X148536225Y-112981961D01*
X148733762Y-112889849D01*
X148733767Y-112889846D01*
X148738749Y-112887523D01*
X148858329Y-112803792D01*
X148921789Y-112759357D01*
X148921792Y-112759355D01*
X148926300Y-112756198D01*
X149088198Y-112594300D01*
X149091361Y-112589784D01*
X149178021Y-112466020D01*
X149219523Y-112406749D01*
X149221846Y-112401767D01*
X149221849Y-112401762D01*
X149313961Y-112204225D01*
X149313961Y-112204224D01*
X149316284Y-112199243D01*
X149353951Y-112058671D01*
X149374119Y-111983402D01*
X149374119Y-111983400D01*
X149375543Y-111978087D01*
X149395498Y-111750000D01*
X154388502Y-111750000D01*
X154408457Y-111978087D01*
X154409881Y-111983400D01*
X154409881Y-111983402D01*
X154430050Y-112058671D01*
X154467716Y-112199243D01*
X154470039Y-112204224D01*
X154470039Y-112204225D01*
X154562151Y-112401762D01*
X154562154Y-112401767D01*
X154564477Y-112406749D01*
X154605979Y-112466020D01*
X154692640Y-112589784D01*
X154695802Y-112594300D01*
X154857700Y-112756198D01*
X154862208Y-112759355D01*
X154862211Y-112759357D01*
X154925671Y-112803792D01*
X155045251Y-112887523D01*
X155050233Y-112889846D01*
X155050238Y-112889849D01*
X155247775Y-112981961D01*
X155252757Y-112984284D01*
X155258065Y-112985706D01*
X155258067Y-112985707D01*
X155468598Y-113042119D01*
X155468600Y-113042119D01*
X155473913Y-113043543D01*
X155702000Y-113063498D01*
X155930087Y-113043543D01*
X155935400Y-113042119D01*
X155935402Y-113042119D01*
X156145933Y-112985707D01*
X156145935Y-112985706D01*
X156151243Y-112984284D01*
X156156225Y-112981961D01*
X156353762Y-112889849D01*
X156353767Y-112889846D01*
X156358749Y-112887523D01*
X156478329Y-112803792D01*
X156541789Y-112759357D01*
X156541792Y-112759355D01*
X156546300Y-112756198D01*
X156708198Y-112594300D01*
X156711357Y-112589789D01*
X156711361Y-112589784D01*
X156739845Y-112549104D01*
X156795302Y-112504775D01*
X156865921Y-112497466D01*
X156929281Y-112529496D01*
X156950490Y-112555538D01*
X156971801Y-112590314D01*
X156971805Y-112590319D01*
X156974501Y-112594719D01*
X157126147Y-112769784D01*
X157304349Y-112917730D01*
X157504322Y-113034584D01*
X157509147Y-113036426D01*
X157509148Y-113036427D01*
X157532198Y-113045229D01*
X157720694Y-113117209D01*
X157725760Y-113118240D01*
X157725761Y-113118240D01*
X157778846Y-113129040D01*
X157947656Y-113163385D01*
X158078324Y-113168176D01*
X158173949Y-113171683D01*
X158173953Y-113171683D01*
X158179113Y-113171872D01*
X158184233Y-113171216D01*
X158184235Y-113171216D01*
X158283668Y-113158478D01*
X158408847Y-113142442D01*
X158413795Y-113140957D01*
X158413802Y-113140956D01*
X158625747Y-113077369D01*
X158630690Y-113075886D01*
X158635324Y-113073616D01*
X158834049Y-112976262D01*
X158834052Y-112976260D01*
X158838684Y-112973991D01*
X159027243Y-112839494D01*
X159030898Y-112835852D01*
X159030906Y-112835845D01*
X159072697Y-112794199D01*
X159135068Y-112760282D01*
X159205875Y-112765470D01*
X159262637Y-112808116D01*
X159279619Y-112839218D01*
X159301677Y-112898056D01*
X159310214Y-112913649D01*
X159386715Y-113015724D01*
X159399276Y-113028285D01*
X159501351Y-113104786D01*
X159516946Y-113113324D01*
X159637394Y-113158478D01*
X159652649Y-113162105D01*
X159703514Y-113167631D01*
X159710328Y-113168000D01*
X160382885Y-113168000D01*
X160398124Y-113163525D01*
X160399329Y-113162135D01*
X160401000Y-113154452D01*
X160401000Y-113149884D01*
X160909000Y-113149884D01*
X160913475Y-113165123D01*
X160914865Y-113166328D01*
X160922548Y-113167999D01*
X161599669Y-113167999D01*
X161606490Y-113167629D01*
X161657352Y-113162105D01*
X161672604Y-113158479D01*
X161793054Y-113113324D01*
X161808649Y-113104786D01*
X161910724Y-113028285D01*
X161923285Y-113015724D01*
X161999786Y-112913649D01*
X162008324Y-112898054D01*
X162053478Y-112777606D01*
X162057105Y-112762351D01*
X162062631Y-112711486D01*
X162063000Y-112704672D01*
X162063000Y-112032115D01*
X162061782Y-112027966D01*
X163768257Y-112027966D01*
X163798565Y-112162446D01*
X163801645Y-112172275D01*
X163881770Y-112369603D01*
X163886413Y-112378794D01*
X163997694Y-112560388D01*
X164003777Y-112568699D01*
X164143213Y-112729667D01*
X164150580Y-112736883D01*
X164314434Y-112872916D01*
X164322881Y-112878831D01*
X164506756Y-112986279D01*
X164516042Y-112990729D01*
X164715001Y-113066703D01*
X164724899Y-113069579D01*
X164828250Y-113090606D01*
X164842299Y-113089410D01*
X164846000Y-113079065D01*
X164846000Y-113078517D01*
X165354000Y-113078517D01*
X165358064Y-113092359D01*
X165371478Y-113094393D01*
X165378184Y-113093534D01*
X165388262Y-113091392D01*
X165592255Y-113030191D01*
X165601842Y-113026433D01*
X165793095Y-112932739D01*
X165801945Y-112927464D01*
X165975328Y-112803792D01*
X165983200Y-112797139D01*
X166134052Y-112646812D01*
X166140730Y-112638965D01*
X166265003Y-112466020D01*
X166270313Y-112457183D01*
X166364670Y-112266267D01*
X166368469Y-112256672D01*
X166430377Y-112052910D01*
X166432555Y-112042837D01*
X166433986Y-112031962D01*
X166431775Y-112017778D01*
X166418617Y-112014000D01*
X165372115Y-112014000D01*
X165356876Y-112018475D01*
X165355671Y-112019865D01*
X165354000Y-112027548D01*
X165354000Y-113078517D01*
X164846000Y-113078517D01*
X164846000Y-112032115D01*
X164841525Y-112016876D01*
X164840135Y-112015671D01*
X164832452Y-112014000D01*
X163783225Y-112014000D01*
X163769694Y-112017973D01*
X163768257Y-112027966D01*
X162061782Y-112027966D01*
X162058525Y-112016876D01*
X162057135Y-112015671D01*
X162049452Y-112014000D01*
X160927115Y-112014000D01*
X160911876Y-112018475D01*
X160910671Y-112019865D01*
X160909000Y-112027548D01*
X160909000Y-113149884D01*
X160401000Y-113149884D01*
X160401000Y-111487885D01*
X160909000Y-111487885D01*
X160913475Y-111503124D01*
X160914865Y-111504329D01*
X160922548Y-111506000D01*
X162044884Y-111506000D01*
X162060123Y-111501525D01*
X162061328Y-111500135D01*
X162062999Y-111492452D01*
X162062999Y-110815331D01*
X162062629Y-110808510D01*
X162057105Y-110757648D01*
X162053479Y-110742396D01*
X162008324Y-110621946D01*
X161999786Y-110606351D01*
X161923285Y-110504276D01*
X161910724Y-110491715D01*
X161808649Y-110415214D01*
X161793054Y-110406676D01*
X161672606Y-110361522D01*
X161657351Y-110357895D01*
X161606486Y-110352369D01*
X161599672Y-110352000D01*
X160927115Y-110352000D01*
X160911876Y-110356475D01*
X160910671Y-110357865D01*
X160909000Y-110365548D01*
X160909000Y-111487885D01*
X160401000Y-111487885D01*
X160401000Y-110370116D01*
X160396525Y-110354877D01*
X160395135Y-110353672D01*
X160387452Y-110352001D01*
X159710331Y-110352001D01*
X159703510Y-110352371D01*
X159652648Y-110357895D01*
X159637396Y-110361521D01*
X159516946Y-110406676D01*
X159501351Y-110415214D01*
X159399276Y-110491715D01*
X159386715Y-110504276D01*
X159310214Y-110606351D01*
X159301675Y-110621948D01*
X159280934Y-110677275D01*
X159238293Y-110734040D01*
X159171731Y-110758740D01*
X159102383Y-110743533D01*
X159079388Y-110726909D01*
X159078887Y-110726358D01*
X159016737Y-110677275D01*
X158901177Y-110586011D01*
X158901172Y-110586008D01*
X158897123Y-110582810D01*
X158892607Y-110580317D01*
X158892604Y-110580315D01*
X158698879Y-110473373D01*
X158698875Y-110473371D01*
X158694355Y-110470876D01*
X158689486Y-110469152D01*
X158689482Y-110469150D01*
X158480903Y-110395288D01*
X158480899Y-110395287D01*
X158476028Y-110393562D01*
X158470935Y-110392655D01*
X158470932Y-110392654D01*
X158253095Y-110353851D01*
X158253089Y-110353850D01*
X158248006Y-110352945D01*
X158170644Y-110352000D01*
X158021581Y-110350179D01*
X158021579Y-110350179D01*
X158016411Y-110350116D01*
X157787464Y-110385150D01*
X157567314Y-110457106D01*
X157562726Y-110459494D01*
X157562722Y-110459496D01*
X157414340Y-110536739D01*
X157361872Y-110564052D01*
X157357739Y-110567155D01*
X157357736Y-110567157D01*
X157231813Y-110661703D01*
X157176655Y-110703117D01*
X157016639Y-110870564D01*
X156974099Y-110932926D01*
X156955027Y-110960884D01*
X156900116Y-111005887D01*
X156829591Y-111014058D01*
X156765844Y-110982804D01*
X156747726Y-110962151D01*
X156711357Y-110910211D01*
X156711355Y-110910208D01*
X156708198Y-110905700D01*
X156546300Y-110743802D01*
X156541792Y-110740645D01*
X156541789Y-110740643D01*
X156381235Y-110628222D01*
X156358749Y-110612477D01*
X156353767Y-110610154D01*
X156353762Y-110610151D01*
X156156225Y-110518039D01*
X156156224Y-110518039D01*
X156151243Y-110515716D01*
X156145935Y-110514294D01*
X156145933Y-110514293D01*
X155935402Y-110457881D01*
X155935400Y-110457881D01*
X155930087Y-110456457D01*
X155702000Y-110436502D01*
X155473913Y-110456457D01*
X155468600Y-110457881D01*
X155468598Y-110457881D01*
X155258067Y-110514293D01*
X155258065Y-110514294D01*
X155252757Y-110515716D01*
X155247776Y-110518039D01*
X155247775Y-110518039D01*
X155050238Y-110610151D01*
X155050233Y-110610154D01*
X155045251Y-110612477D01*
X155022765Y-110628222D01*
X154862211Y-110740643D01*
X154862208Y-110740645D01*
X154857700Y-110743802D01*
X154695802Y-110905700D01*
X154564477Y-111093251D01*
X154562154Y-111098233D01*
X154562151Y-111098238D01*
X154551624Y-111120814D01*
X154467716Y-111300757D01*
X154466294Y-111306065D01*
X154466293Y-111306067D01*
X154412721Y-111506000D01*
X154408457Y-111521913D01*
X154388502Y-111750000D01*
X149395498Y-111750000D01*
X149375543Y-111521913D01*
X149371279Y-111506000D01*
X149317707Y-111306067D01*
X149317706Y-111306065D01*
X149316284Y-111300757D01*
X149232376Y-111120814D01*
X149221849Y-111098238D01*
X149221846Y-111098233D01*
X149219523Y-111093251D01*
X149088198Y-110905700D01*
X148926300Y-110743802D01*
X148921792Y-110740645D01*
X148921789Y-110740643D01*
X148761235Y-110628222D01*
X148738749Y-110612477D01*
X148733767Y-110610154D01*
X148733762Y-110610151D01*
X148536225Y-110518039D01*
X148536224Y-110518039D01*
X148531243Y-110515716D01*
X148525935Y-110514294D01*
X148525933Y-110514293D01*
X148315402Y-110457881D01*
X148315400Y-110457881D01*
X148310087Y-110456457D01*
X148082000Y-110436502D01*
X147853913Y-110456457D01*
X147848600Y-110457881D01*
X147848598Y-110457881D01*
X147638067Y-110514293D01*
X147638065Y-110514294D01*
X147632757Y-110515716D01*
X147627776Y-110518039D01*
X147627775Y-110518039D01*
X147430238Y-110610151D01*
X147430233Y-110610154D01*
X147425251Y-110612477D01*
X147402765Y-110628222D01*
X147242211Y-110740643D01*
X147242208Y-110740645D01*
X147237700Y-110743802D01*
X147075802Y-110905700D01*
X147072645Y-110910208D01*
X147072643Y-110910211D01*
X146965819Y-111062771D01*
X146910362Y-111107099D01*
X146862606Y-111116500D01*
X146274500Y-111116500D01*
X146206379Y-111096498D01*
X146159886Y-111042842D01*
X146148500Y-110990500D01*
X146148500Y-110851866D01*
X146141745Y-110789684D01*
X146090615Y-110653295D01*
X146003261Y-110536739D01*
X145886705Y-110449385D01*
X145750316Y-110398255D01*
X145688134Y-110391500D01*
X144359595Y-110391500D01*
X144291474Y-110371498D01*
X144270499Y-110354595D01*
X143545404Y-109629499D01*
X143511379Y-109567187D01*
X143508500Y-109540404D01*
X143508500Y-109186695D01*
X163737251Y-109186695D01*
X163737548Y-109191848D01*
X163737548Y-109191851D01*
X163743011Y-109286590D01*
X163750110Y-109409715D01*
X163751247Y-109414761D01*
X163751248Y-109414767D01*
X163771119Y-109502939D01*
X163799222Y-109627639D01*
X163837461Y-109721811D01*
X163870362Y-109802836D01*
X163883266Y-109834616D01*
X163999987Y-110025088D01*
X164146250Y-110193938D01*
X164318126Y-110336632D01*
X164367610Y-110365548D01*
X164391955Y-110379774D01*
X164440679Y-110431412D01*
X164453750Y-110501195D01*
X164427019Y-110566967D01*
X164386562Y-110600327D01*
X164378457Y-110604546D01*
X164369738Y-110610036D01*
X164199433Y-110737905D01*
X164191726Y-110744748D01*
X164044590Y-110898717D01*
X164038104Y-110906727D01*
X163918098Y-111082649D01*
X163913000Y-111091623D01*
X163823338Y-111284783D01*
X163819775Y-111294470D01*
X163764389Y-111494183D01*
X163765912Y-111502607D01*
X163778292Y-111506000D01*
X166418344Y-111506000D01*
X166431875Y-111502027D01*
X166433180Y-111492947D01*
X166391214Y-111325875D01*
X166387894Y-111316124D01*
X166302972Y-111120814D01*
X166298105Y-111111739D01*
X166182426Y-110932926D01*
X166176136Y-110924757D01*
X166032806Y-110767240D01*
X166025273Y-110760215D01*
X165858139Y-110628222D01*
X165849556Y-110622520D01*
X165812602Y-110602120D01*
X165762631Y-110551687D01*
X165747859Y-110482245D01*
X165772975Y-110415839D01*
X165800327Y-110389232D01*
X165850180Y-110353672D01*
X165979860Y-110261173D01*
X166138096Y-110103489D01*
X166164933Y-110066142D01*
X166265435Y-109926277D01*
X166268453Y-109922077D01*
X166274077Y-109910699D01*
X166365136Y-109726453D01*
X166365137Y-109726451D01*
X166367430Y-109721811D01*
X166432370Y-109508069D01*
X166461529Y-109286590D01*
X166463156Y-109220000D01*
X166444852Y-108997361D01*
X166390431Y-108780702D01*
X166301354Y-108575840D01*
X166180014Y-108388277D01*
X166029670Y-108223051D01*
X166025619Y-108219852D01*
X166025615Y-108219848D01*
X165858414Y-108087800D01*
X165858410Y-108087798D01*
X165854359Y-108084598D01*
X165813053Y-108061796D01*
X165763084Y-108011364D01*
X165748312Y-107941921D01*
X165773428Y-107875516D01*
X165800780Y-107848909D01*
X165844603Y-107817650D01*
X165979860Y-107721173D01*
X166138096Y-107563489D01*
X166197594Y-107480689D01*
X166265435Y-107386277D01*
X166268453Y-107382077D01*
X166367430Y-107181811D01*
X166432370Y-106968069D01*
X166461529Y-106746590D01*
X166461888Y-106731883D01*
X166463074Y-106683365D01*
X166463074Y-106683361D01*
X166463156Y-106680000D01*
X166444852Y-106457361D01*
X166390431Y-106240702D01*
X166301354Y-106035840D01*
X166242516Y-105944890D01*
X166182822Y-105852617D01*
X166182820Y-105852614D01*
X166180014Y-105848277D01*
X166176327Y-105844225D01*
X166032798Y-105686488D01*
X166001746Y-105622642D01*
X166010141Y-105552143D01*
X166055317Y-105497375D01*
X166081761Y-105483706D01*
X166188297Y-105443767D01*
X166196705Y-105440615D01*
X166313261Y-105353261D01*
X166400615Y-105236705D01*
X166451745Y-105100316D01*
X166458500Y-105038134D01*
X166458500Y-103241866D01*
X166451745Y-103179684D01*
X166400615Y-103043295D01*
X166313261Y-102926739D01*
X166196705Y-102839385D01*
X166060316Y-102788255D01*
X165998134Y-102781500D01*
X164201866Y-102781500D01*
X164139684Y-102788255D01*
X164003295Y-102839385D01*
X163886739Y-102926739D01*
X163799385Y-103043295D01*
X163748255Y-103179684D01*
X163741500Y-103241866D01*
X163741500Y-105038134D01*
X163748255Y-105100316D01*
X163799385Y-105236705D01*
X163886739Y-105353261D01*
X164003295Y-105440615D01*
X164011704Y-105443767D01*
X164011705Y-105443768D01*
X164120451Y-105484535D01*
X164177216Y-105527176D01*
X164201916Y-105593738D01*
X164186709Y-105663087D01*
X164167316Y-105689568D01*
X164040629Y-105822138D01*
X164037715Y-105826410D01*
X164037714Y-105826411D01*
X164017890Y-105855472D01*
X163914743Y-106006680D01*
X163820688Y-106209305D01*
X163760989Y-106424570D01*
X163737251Y-106646695D01*
X163737548Y-106651848D01*
X163737548Y-106651851D01*
X163743413Y-106753567D01*
X163750110Y-106869715D01*
X163751247Y-106874761D01*
X163751248Y-106874767D01*
X163771119Y-106962939D01*
X163799222Y-107087639D01*
X163883266Y-107294616D01*
X163999987Y-107485088D01*
X164146250Y-107653938D01*
X164318126Y-107796632D01*
X164388595Y-107837811D01*
X164391445Y-107839476D01*
X164440169Y-107891114D01*
X164453240Y-107960897D01*
X164426509Y-108026669D01*
X164386055Y-108060027D01*
X164373607Y-108066507D01*
X164369474Y-108069610D01*
X164369471Y-108069612D01*
X164345247Y-108087800D01*
X164194965Y-108200635D01*
X164040629Y-108362138D01*
X163914743Y-108546680D01*
X163820688Y-108749305D01*
X163760989Y-108964570D01*
X163737251Y-109186695D01*
X143508500Y-109186695D01*
X143508500Y-106333474D01*
X143528502Y-106265353D01*
X143582158Y-106218860D01*
X143652432Y-106208756D01*
X143717012Y-106238250D01*
X143729734Y-106250973D01*
X143783732Y-106313310D01*
X143832866Y-106370032D01*
X143832869Y-106370035D01*
X143836250Y-106373938D01*
X144008126Y-106516632D01*
X144201000Y-106629338D01*
X144205825Y-106631180D01*
X144205826Y-106631181D01*
X144275972Y-106657967D01*
X144409692Y-106709030D01*
X144414760Y-106710061D01*
X144414763Y-106710062D01*
X144522017Y-106731883D01*
X144628597Y-106753567D01*
X144633772Y-106753757D01*
X144633774Y-106753757D01*
X144846673Y-106761564D01*
X144846677Y-106761564D01*
X144851837Y-106761753D01*
X144856957Y-106761097D01*
X144856959Y-106761097D01*
X145068288Y-106734025D01*
X145068289Y-106734025D01*
X145073416Y-106733368D01*
X145078366Y-106731883D01*
X145282429Y-106670661D01*
X145282434Y-106670659D01*
X145287384Y-106669174D01*
X145487994Y-106570896D01*
X145669860Y-106441173D01*
X145711823Y-106399357D01*
X145824435Y-106287137D01*
X145828096Y-106283489D01*
X145858842Y-106240702D01*
X145955435Y-106106277D01*
X145958453Y-106102077D01*
X145988263Y-106041762D01*
X146055136Y-105906453D01*
X146055137Y-105906451D01*
X146057430Y-105901811D01*
X146122370Y-105688069D01*
X146126523Y-105656522D01*
X148597273Y-105656522D01*
X148644764Y-105833761D01*
X148648510Y-105844053D01*
X148740586Y-106041511D01*
X148746069Y-106051007D01*
X148871028Y-106229467D01*
X148878084Y-106237875D01*
X149032125Y-106391916D01*
X149040533Y-106398972D01*
X149218993Y-106523931D01*
X149228489Y-106529414D01*
X149425947Y-106621490D01*
X149436239Y-106625236D01*
X149608503Y-106671394D01*
X149622599Y-106671058D01*
X149626000Y-106663116D01*
X149626000Y-106657967D01*
X150134000Y-106657967D01*
X150137973Y-106671498D01*
X150146522Y-106672727D01*
X150323761Y-106625236D01*
X150334053Y-106621490D01*
X150531511Y-106529414D01*
X150541007Y-106523931D01*
X150719467Y-106398972D01*
X150727875Y-106391916D01*
X150881916Y-106237875D01*
X150888972Y-106229467D01*
X151013931Y-106051007D01*
X151019414Y-106041511D01*
X151111490Y-105844053D01*
X151115236Y-105833761D01*
X151161394Y-105661497D01*
X151161058Y-105647401D01*
X151153116Y-105644000D01*
X150152115Y-105644000D01*
X150136876Y-105648475D01*
X150135671Y-105649865D01*
X150134000Y-105657548D01*
X150134000Y-106657967D01*
X149626000Y-106657967D01*
X149626000Y-105662115D01*
X149621525Y-105646876D01*
X149620135Y-105645671D01*
X149612452Y-105644000D01*
X148612033Y-105644000D01*
X148598502Y-105647973D01*
X148597273Y-105656522D01*
X146126523Y-105656522D01*
X146151529Y-105466590D01*
X146153156Y-105400000D01*
X146134852Y-105177361D01*
X146106821Y-105065765D01*
X146109625Y-104994825D01*
X146139930Y-104945974D01*
X146275501Y-104810404D01*
X146337813Y-104776379D01*
X146364596Y-104773500D01*
X148527689Y-104773500D01*
X148595810Y-104793502D01*
X148642303Y-104847158D01*
X148652407Y-104917432D01*
X148646092Y-104942589D01*
X148644766Y-104946234D01*
X148598606Y-105118503D01*
X148598942Y-105132599D01*
X148606884Y-105136000D01*
X151147967Y-105136000D01*
X151161498Y-105132027D01*
X151162727Y-105123478D01*
X151115234Y-104946234D01*
X151113908Y-104942589D01*
X151109408Y-104871735D01*
X151143930Y-104809696D01*
X151206511Y-104776170D01*
X151232311Y-104773500D01*
X153591233Y-104773500D01*
X153602416Y-104774027D01*
X153609909Y-104775702D01*
X153617835Y-104775453D01*
X153617836Y-104775453D01*
X153677986Y-104773562D01*
X153681945Y-104773500D01*
X153709856Y-104773500D01*
X153713791Y-104773003D01*
X153713856Y-104772995D01*
X153725693Y-104772062D01*
X153757951Y-104771048D01*
X153761970Y-104770922D01*
X153769889Y-104770673D01*
X153789343Y-104765021D01*
X153808700Y-104761013D01*
X153820930Y-104759468D01*
X153820931Y-104759468D01*
X153828797Y-104758474D01*
X153836168Y-104755555D01*
X153836170Y-104755555D01*
X153869912Y-104742196D01*
X153881142Y-104738351D01*
X153915983Y-104728229D01*
X153915984Y-104728229D01*
X153923593Y-104726018D01*
X153930412Y-104721985D01*
X153930417Y-104721983D01*
X153941028Y-104715707D01*
X153958776Y-104707012D01*
X153977617Y-104699552D01*
X154013387Y-104673564D01*
X154023307Y-104667048D01*
X154054535Y-104648580D01*
X154054538Y-104648578D01*
X154061362Y-104644542D01*
X154075683Y-104630221D01*
X154090717Y-104617380D01*
X154100694Y-104610131D01*
X154107107Y-104605472D01*
X154135298Y-104571395D01*
X154143288Y-104562616D01*
X155185499Y-103520405D01*
X155247811Y-103486379D01*
X155274594Y-103483500D01*
X156280606Y-103483500D01*
X156348727Y-103503502D01*
X156383819Y-103537229D01*
X156490641Y-103689786D01*
X156493802Y-103694300D01*
X156655700Y-103856198D01*
X156660208Y-103859355D01*
X156660211Y-103859357D01*
X156738389Y-103914098D01*
X156843251Y-103987523D01*
X156848233Y-103989846D01*
X156848238Y-103989849D01*
X156882457Y-104005805D01*
X156935742Y-104052722D01*
X156955203Y-104120999D01*
X156934661Y-104188959D01*
X156882457Y-104234195D01*
X156848238Y-104250151D01*
X156848233Y-104250154D01*
X156843251Y-104252477D01*
X156738389Y-104325902D01*
X156660211Y-104380643D01*
X156660208Y-104380645D01*
X156655700Y-104383802D01*
X156493802Y-104545700D01*
X156490645Y-104550208D01*
X156490643Y-104550211D01*
X156451949Y-104605472D01*
X156362477Y-104733251D01*
X156360154Y-104738233D01*
X156360151Y-104738238D01*
X156271056Y-104929305D01*
X156265716Y-104940757D01*
X156264294Y-104946065D01*
X156264293Y-104946067D01*
X156214465Y-105132027D01*
X156206457Y-105161913D01*
X156186502Y-105390000D01*
X156206457Y-105618087D01*
X156207881Y-105623400D01*
X156207881Y-105623402D01*
X156262278Y-105826411D01*
X156265716Y-105839243D01*
X156268039Y-105844224D01*
X156268039Y-105844225D01*
X156360151Y-106041762D01*
X156360154Y-106041767D01*
X156362477Y-106046749D01*
X156365634Y-106051257D01*
X156482991Y-106218860D01*
X156493802Y-106234300D01*
X156655700Y-106396198D01*
X156660208Y-106399355D01*
X156660211Y-106399357D01*
X156719931Y-106441173D01*
X156843251Y-106527523D01*
X156848233Y-106529846D01*
X156848238Y-106529849D01*
X156936265Y-106570896D01*
X157050757Y-106624284D01*
X157056065Y-106625706D01*
X157056067Y-106625707D01*
X157266598Y-106682119D01*
X157266600Y-106682119D01*
X157271913Y-106683543D01*
X157500000Y-106703498D01*
X157728087Y-106683543D01*
X157733400Y-106682119D01*
X157733402Y-106682119D01*
X157943933Y-106625707D01*
X157943935Y-106625706D01*
X157949243Y-106624284D01*
X158063735Y-106570896D01*
X158151762Y-106529849D01*
X158151767Y-106529846D01*
X158156749Y-106527523D01*
X158280069Y-106441173D01*
X158339789Y-106399357D01*
X158339792Y-106399355D01*
X158344300Y-106396198D01*
X158506198Y-106234300D01*
X158509582Y-106229467D01*
X158614773Y-106079240D01*
X158670230Y-106034912D01*
X158714026Y-106025573D01*
X158774856Y-106023660D01*
X158777986Y-106023562D01*
X158781945Y-106023500D01*
X158809856Y-106023500D01*
X158813791Y-106023003D01*
X158813856Y-106022995D01*
X158825693Y-106022062D01*
X158857951Y-106021048D01*
X158861970Y-106020922D01*
X158869889Y-106020673D01*
X158889343Y-106015021D01*
X158908700Y-106011013D01*
X158920930Y-106009468D01*
X158920931Y-106009468D01*
X158928797Y-106008474D01*
X158936168Y-106005555D01*
X158936170Y-106005555D01*
X158969912Y-105992196D01*
X158981142Y-105988351D01*
X159015983Y-105978229D01*
X159015984Y-105978229D01*
X159023593Y-105976018D01*
X159030412Y-105971985D01*
X159030417Y-105971983D01*
X159041028Y-105965707D01*
X159058776Y-105957012D01*
X159077617Y-105949552D01*
X159113387Y-105923564D01*
X159123307Y-105917048D01*
X159154535Y-105898580D01*
X159154538Y-105898578D01*
X159161362Y-105894542D01*
X159175683Y-105880221D01*
X159190717Y-105867380D01*
X159200694Y-105860131D01*
X159207107Y-105855472D01*
X159235298Y-105821395D01*
X159243288Y-105812616D01*
X159777247Y-105278657D01*
X159785537Y-105271113D01*
X159792018Y-105267000D01*
X159838659Y-105217332D01*
X159841413Y-105214491D01*
X159861134Y-105194770D01*
X159863612Y-105191575D01*
X159871318Y-105182553D01*
X159896158Y-105156101D01*
X159901586Y-105150321D01*
X159911346Y-105132568D01*
X159922199Y-105116045D01*
X159929753Y-105106306D01*
X159934613Y-105100041D01*
X159952176Y-105059457D01*
X159957383Y-105048827D01*
X159978695Y-105010060D01*
X159980666Y-105002383D01*
X159980668Y-105002378D01*
X159983732Y-104990442D01*
X159990138Y-104971730D01*
X159995034Y-104960417D01*
X159998181Y-104953145D01*
X160000708Y-104937195D01*
X160005097Y-104909481D01*
X160007504Y-104897860D01*
X160016528Y-104862711D01*
X160016528Y-104862710D01*
X160018500Y-104855030D01*
X160018500Y-104834769D01*
X160020051Y-104815058D01*
X160021979Y-104802885D01*
X160023219Y-104795057D01*
X160019059Y-104751046D01*
X160018500Y-104739189D01*
X160018500Y-98105312D01*
X160038502Y-98037191D01*
X160055405Y-98016217D01*
X163421218Y-94650405D01*
X163483530Y-94616379D01*
X163510313Y-94613500D01*
X163824274Y-94613500D01*
X163892395Y-94633502D01*
X163931707Y-94673665D01*
X163999987Y-94785088D01*
X164146250Y-94953938D01*
X164318126Y-95096632D01*
X164511000Y-95209338D01*
X164515825Y-95211180D01*
X164515826Y-95211181D01*
X164544457Y-95222114D01*
X164719692Y-95289030D01*
X164724760Y-95290061D01*
X164724763Y-95290062D01*
X164822310Y-95309908D01*
X164938597Y-95333567D01*
X164943772Y-95333757D01*
X164943774Y-95333757D01*
X165156673Y-95341564D01*
X165156677Y-95341564D01*
X165161837Y-95341753D01*
X165166957Y-95341097D01*
X165166959Y-95341097D01*
X165378288Y-95314025D01*
X165378289Y-95314025D01*
X165383416Y-95313368D01*
X165406008Y-95306590D01*
X165592429Y-95250661D01*
X165592434Y-95250659D01*
X165597384Y-95249174D01*
X165797994Y-95150896D01*
X165979860Y-95021173D01*
X165983686Y-95017361D01*
X166109050Y-94892434D01*
X166138096Y-94863489D01*
X166156326Y-94838120D01*
X166265435Y-94686277D01*
X166268453Y-94682077D01*
X166272611Y-94673665D01*
X166365136Y-94486453D01*
X166365137Y-94486451D01*
X166367430Y-94481811D01*
X166432370Y-94268069D01*
X166461529Y-94046590D01*
X166462001Y-94027278D01*
X166463074Y-93983365D01*
X166463074Y-93983357D01*
X166463156Y-93980000D01*
X166444852Y-93757361D01*
X166390431Y-93540702D01*
X166301354Y-93335840D01*
X166180014Y-93148277D01*
X166029670Y-92983051D01*
X166025619Y-92979852D01*
X166025615Y-92979848D01*
X165858414Y-92847800D01*
X165858410Y-92847798D01*
X165854359Y-92844598D01*
X165813053Y-92821796D01*
X165763084Y-92771364D01*
X165748312Y-92701921D01*
X165773428Y-92635516D01*
X165800780Y-92608909D01*
X165844603Y-92577650D01*
X165979860Y-92481173D01*
X165983686Y-92477361D01*
X166097746Y-92363698D01*
X166138096Y-92323489D01*
X166174630Y-92272647D01*
X166265435Y-92146277D01*
X166268453Y-92142077D01*
X166271384Y-92136148D01*
X166365136Y-91946453D01*
X166365137Y-91946451D01*
X166367430Y-91941811D01*
X166432370Y-91728069D01*
X166461529Y-91506590D01*
X166462001Y-91487278D01*
X166463074Y-91443365D01*
X166463074Y-91443357D01*
X166463156Y-91440000D01*
X166444852Y-91217361D01*
X166390431Y-91000702D01*
X166301354Y-90795840D01*
X166180014Y-90608277D01*
X166029670Y-90443051D01*
X166025619Y-90439852D01*
X166025615Y-90439848D01*
X165858414Y-90307800D01*
X165858410Y-90307798D01*
X165854359Y-90304598D01*
X165813053Y-90281796D01*
X165763084Y-90231364D01*
X165748312Y-90161921D01*
X165773428Y-90095516D01*
X165800780Y-90068909D01*
X165844603Y-90037650D01*
X165979860Y-89941173D01*
X165983686Y-89937361D01*
X166134435Y-89787137D01*
X166138096Y-89783489D01*
X166147670Y-89770166D01*
X166265435Y-89606277D01*
X166268453Y-89602077D01*
X166272611Y-89593665D01*
X166365136Y-89406453D01*
X166365137Y-89406451D01*
X166367430Y-89401811D01*
X166432370Y-89188069D01*
X166461529Y-88966590D01*
X166462616Y-88922119D01*
X166463074Y-88903365D01*
X166463074Y-88903361D01*
X166463156Y-88900000D01*
X166444852Y-88677361D01*
X166390431Y-88460702D01*
X166301354Y-88255840D01*
X166261906Y-88194862D01*
X166182822Y-88072617D01*
X166182820Y-88072614D01*
X166180014Y-88068277D01*
X166029670Y-87903051D01*
X166025619Y-87899852D01*
X166025615Y-87899848D01*
X165858414Y-87767800D01*
X165858410Y-87767798D01*
X165854359Y-87764598D01*
X165813053Y-87741796D01*
X165763084Y-87691364D01*
X165748312Y-87621921D01*
X165773428Y-87555516D01*
X165800780Y-87528909D01*
X165844603Y-87497650D01*
X165979860Y-87401173D01*
X165999188Y-87381913D01*
X166134435Y-87247137D01*
X166138096Y-87243489D01*
X166144624Y-87234405D01*
X166265435Y-87066277D01*
X166268453Y-87062077D01*
X166274077Y-87050699D01*
X166365136Y-86866453D01*
X166365137Y-86866451D01*
X166367430Y-86861811D01*
X166417856Y-86695840D01*
X166430865Y-86653023D01*
X166430865Y-86653021D01*
X166432370Y-86648069D01*
X166461529Y-86426590D01*
X166462014Y-86406739D01*
X166463074Y-86363365D01*
X166463074Y-86363361D01*
X166463156Y-86360000D01*
X166444852Y-86137361D01*
X166390431Y-85920702D01*
X166301354Y-85715840D01*
X166180014Y-85528277D01*
X166029670Y-85363051D01*
X166025619Y-85359852D01*
X166025615Y-85359848D01*
X165858414Y-85227800D01*
X165858410Y-85227798D01*
X165854359Y-85224598D01*
X165813053Y-85201796D01*
X165763084Y-85151364D01*
X165748312Y-85081921D01*
X165773428Y-85015516D01*
X165800780Y-84988909D01*
X165844603Y-84957650D01*
X165979860Y-84861173D01*
X166138096Y-84703489D01*
X166197594Y-84620689D01*
X166265435Y-84526277D01*
X166268453Y-84522077D01*
X166286840Y-84484875D01*
X166365136Y-84326453D01*
X166365137Y-84326451D01*
X166367430Y-84321811D01*
X166432370Y-84108069D01*
X166461529Y-83886590D01*
X166463156Y-83820000D01*
X166444852Y-83597361D01*
X166390431Y-83380702D01*
X166301354Y-83175840D01*
X166202664Y-83023288D01*
X166182822Y-82992617D01*
X166182820Y-82992614D01*
X166180014Y-82988277D01*
X166029670Y-82823051D01*
X166025619Y-82819852D01*
X166025615Y-82819848D01*
X165858414Y-82687800D01*
X165858410Y-82687798D01*
X165854359Y-82684598D01*
X165813053Y-82661796D01*
X165763084Y-82611364D01*
X165748312Y-82541921D01*
X165773428Y-82475516D01*
X165800780Y-82448909D01*
X165863837Y-82403931D01*
X165979860Y-82321173D01*
X166021823Y-82279357D01*
X166134435Y-82167137D01*
X166138096Y-82163489D01*
X166170642Y-82118197D01*
X166265435Y-81986277D01*
X166268453Y-81982077D01*
X166298263Y-81921762D01*
X166365136Y-81786453D01*
X166365137Y-81786451D01*
X166367430Y-81781811D01*
X166432370Y-81568069D01*
X166461529Y-81346590D01*
X166463156Y-81280000D01*
X166444852Y-81057361D01*
X166390431Y-80840702D01*
X166301354Y-80635840D01*
X166180014Y-80448277D01*
X166029670Y-80283051D01*
X166025619Y-80279852D01*
X166025615Y-80279848D01*
X165858414Y-80147800D01*
X165858410Y-80147798D01*
X165854359Y-80144598D01*
X165813053Y-80121796D01*
X165763084Y-80071364D01*
X165748312Y-80001921D01*
X165773428Y-79935516D01*
X165800780Y-79908909D01*
X165863227Y-79864366D01*
X165979860Y-79781173D01*
X166021823Y-79739357D01*
X166134435Y-79627137D01*
X166138096Y-79623489D01*
X166170642Y-79578197D01*
X166265435Y-79446277D01*
X166268453Y-79442077D01*
X166298263Y-79381762D01*
X166365136Y-79246453D01*
X166365137Y-79246451D01*
X166367430Y-79241811D01*
X166403527Y-79123001D01*
X166430865Y-79033023D01*
X166430865Y-79033021D01*
X166432370Y-79028069D01*
X166461529Y-78806590D01*
X166463156Y-78740000D01*
X166444852Y-78517361D01*
X166390431Y-78300702D01*
X166301354Y-78095840D01*
X166180014Y-77908277D01*
X166167439Y-77894457D01*
X166032798Y-77746488D01*
X166001746Y-77682642D01*
X166010141Y-77612143D01*
X166055317Y-77557375D01*
X166081761Y-77543706D01*
X166188297Y-77503767D01*
X166196705Y-77500615D01*
X166313261Y-77413261D01*
X166400615Y-77296705D01*
X166451745Y-77160316D01*
X166458500Y-77098134D01*
X166458500Y-75301866D01*
X166451745Y-75239684D01*
X166400615Y-75103295D01*
X166313261Y-74986739D01*
X166196705Y-74899385D01*
X166060316Y-74848255D01*
X165998134Y-74841500D01*
X164201866Y-74841500D01*
X164139684Y-74848255D01*
X164003295Y-74899385D01*
X163886739Y-74986739D01*
X163799385Y-75103295D01*
X163748255Y-75239684D01*
X163741500Y-75301866D01*
X163741500Y-77098134D01*
X163748255Y-77160316D01*
X163799385Y-77296705D01*
X163886739Y-77413261D01*
X164003295Y-77500615D01*
X164011704Y-77503767D01*
X164011705Y-77503768D01*
X164120451Y-77544535D01*
X164177216Y-77587176D01*
X164201916Y-77653738D01*
X164186709Y-77723087D01*
X164167316Y-77749568D01*
X164045591Y-77876946D01*
X164040629Y-77882138D01*
X164037715Y-77886410D01*
X164037714Y-77886411D01*
X164029620Y-77898277D01*
X163914743Y-78066680D01*
X163880782Y-78139843D01*
X163826290Y-78257237D01*
X163820688Y-78269305D01*
X163760989Y-78484570D01*
X163737251Y-78706695D01*
X163737548Y-78711848D01*
X163737548Y-78711851D01*
X163743011Y-78806590D01*
X163750110Y-78929715D01*
X163751247Y-78934761D01*
X163751248Y-78934767D01*
X163770022Y-79018069D01*
X163799222Y-79147639D01*
X163846294Y-79263564D01*
X163881176Y-79349468D01*
X163883266Y-79354616D01*
X163894471Y-79372901D01*
X163996107Y-79538756D01*
X163999987Y-79545088D01*
X164146250Y-79713938D01*
X164318126Y-79856632D01*
X164368050Y-79885805D01*
X164391445Y-79899476D01*
X164440169Y-79951114D01*
X164453240Y-80020897D01*
X164426509Y-80086669D01*
X164386055Y-80120027D01*
X164373607Y-80126507D01*
X164369474Y-80129610D01*
X164369471Y-80129612D01*
X164203305Y-80254373D01*
X164194965Y-80260635D01*
X164187847Y-80268084D01*
X164045591Y-80416946D01*
X164040629Y-80422138D01*
X163914743Y-80606680D01*
X163820688Y-80809305D01*
X163760989Y-81024570D01*
X163737251Y-81246695D01*
X163737548Y-81251848D01*
X163737548Y-81251851D01*
X163743011Y-81346590D01*
X163750110Y-81469715D01*
X163751247Y-81474761D01*
X163751248Y-81474767D01*
X163765397Y-81537548D01*
X163799222Y-81687639D01*
X163883266Y-81894616D01*
X163885965Y-81899020D01*
X163996107Y-82078756D01*
X163999987Y-82085088D01*
X164146250Y-82253938D01*
X164318126Y-82396632D01*
X164388595Y-82437811D01*
X164391445Y-82439476D01*
X164440169Y-82491114D01*
X164453240Y-82560897D01*
X164426509Y-82626669D01*
X164386055Y-82660027D01*
X164373607Y-82666507D01*
X164369474Y-82669610D01*
X164369471Y-82669612D01*
X164199100Y-82797530D01*
X164194965Y-82800635D01*
X164191393Y-82804373D01*
X164046798Y-82955683D01*
X164040629Y-82962138D01*
X163914743Y-83146680D01*
X163820688Y-83349305D01*
X163760989Y-83564570D01*
X163737251Y-83786695D01*
X163737548Y-83791848D01*
X163737548Y-83791851D01*
X163747416Y-83963000D01*
X163750110Y-84009715D01*
X163751247Y-84014761D01*
X163751248Y-84014767D01*
X163771119Y-84102939D01*
X163799222Y-84227639D01*
X163883266Y-84434616D01*
X163999987Y-84625088D01*
X164146250Y-84793938D01*
X164318126Y-84936632D01*
X164388595Y-84977811D01*
X164391445Y-84979476D01*
X164440169Y-85031114D01*
X164453240Y-85100897D01*
X164426509Y-85166669D01*
X164386055Y-85200027D01*
X164373607Y-85206507D01*
X164369474Y-85209610D01*
X164369471Y-85209612D01*
X164345247Y-85227800D01*
X164194965Y-85340635D01*
X164040629Y-85502138D01*
X163914743Y-85686680D01*
X163820688Y-85889305D01*
X163760989Y-86104570D01*
X163737251Y-86326695D01*
X163737548Y-86331848D01*
X163737548Y-86331851D01*
X163747116Y-86497790D01*
X163750110Y-86549715D01*
X163751247Y-86554761D01*
X163751248Y-86554767D01*
X163761587Y-86600643D01*
X163799222Y-86767639D01*
X163837461Y-86861811D01*
X163879408Y-86965114D01*
X163883266Y-86974616D01*
X163999987Y-87165088D01*
X164146250Y-87333938D01*
X164318126Y-87476632D01*
X164388595Y-87517811D01*
X164391445Y-87519476D01*
X164440169Y-87571114D01*
X164453240Y-87640897D01*
X164426509Y-87706669D01*
X164386055Y-87740027D01*
X164373607Y-87746507D01*
X164369474Y-87749610D01*
X164369471Y-87749612D01*
X164224996Y-87858087D01*
X164194965Y-87880635D01*
X164191393Y-87884373D01*
X164097146Y-87982997D01*
X164040629Y-88042138D01*
X164037715Y-88046410D01*
X164037714Y-88046411D01*
X163925095Y-88211504D01*
X163870184Y-88256507D01*
X163821007Y-88266500D01*
X162638768Y-88266500D01*
X162627585Y-88265973D01*
X162620092Y-88264298D01*
X162612166Y-88264547D01*
X162612165Y-88264547D01*
X162552002Y-88266438D01*
X162548044Y-88266500D01*
X162520144Y-88266500D01*
X162516154Y-88267004D01*
X162504320Y-88267936D01*
X162460111Y-88269326D01*
X162452497Y-88271538D01*
X162452492Y-88271539D01*
X162440659Y-88274977D01*
X162421296Y-88278988D01*
X162401203Y-88281526D01*
X162393836Y-88284443D01*
X162393831Y-88284444D01*
X162360092Y-88297802D01*
X162348865Y-88301646D01*
X162306407Y-88313982D01*
X162299581Y-88318019D01*
X162288972Y-88324293D01*
X162271224Y-88332988D01*
X162252383Y-88340448D01*
X162245967Y-88345110D01*
X162245966Y-88345110D01*
X162216613Y-88366436D01*
X162206693Y-88372952D01*
X162175465Y-88391420D01*
X162175462Y-88391422D01*
X162168638Y-88395458D01*
X162154317Y-88409779D01*
X162139284Y-88422619D01*
X162122893Y-88434528D01*
X162103312Y-88458197D01*
X162094702Y-88468605D01*
X162086712Y-88477384D01*
X159669011Y-90895084D01*
X159606699Y-90929110D01*
X159579916Y-90931989D01*
X158776351Y-90931989D01*
X158708230Y-90911987D01*
X158661737Y-90858331D01*
X158651633Y-90788057D01*
X158662156Y-90752739D01*
X158731490Y-90604053D01*
X158735236Y-90593761D01*
X158781394Y-90421497D01*
X158781058Y-90407401D01*
X158773116Y-90404000D01*
X156232033Y-90404000D01*
X156218502Y-90407973D01*
X156217273Y-90416522D01*
X156264764Y-90593761D01*
X156268510Y-90604053D01*
X156360586Y-90801511D01*
X156366069Y-90811007D01*
X156455361Y-90938529D01*
X156478049Y-91005803D01*
X156460764Y-91074664D01*
X156441546Y-91098715D01*
X156439754Y-91100017D01*
X156434703Y-91106123D01*
X156411573Y-91134082D01*
X156403583Y-91142862D01*
X155182747Y-92363698D01*
X155174461Y-92371238D01*
X155167982Y-92375350D01*
X155162557Y-92381127D01*
X155121357Y-92425001D01*
X155118602Y-92427843D01*
X155098865Y-92447580D01*
X155096385Y-92450777D01*
X155088682Y-92459797D01*
X155058414Y-92492029D01*
X155054595Y-92498975D01*
X155054593Y-92498978D01*
X155048652Y-92509784D01*
X155037801Y-92526303D01*
X155025386Y-92542309D01*
X155022241Y-92549578D01*
X155022238Y-92549582D01*
X155007826Y-92582887D01*
X155002609Y-92593537D01*
X154981305Y-92632290D01*
X154979334Y-92639965D01*
X154979334Y-92639966D01*
X154976267Y-92651912D01*
X154969863Y-92670616D01*
X154961819Y-92689205D01*
X154960580Y-92697028D01*
X154960577Y-92697038D01*
X154954901Y-92732874D01*
X154952495Y-92744494D01*
X154943472Y-92779639D01*
X154941500Y-92787320D01*
X154941500Y-92807574D01*
X154939949Y-92827284D01*
X154936780Y-92847293D01*
X154937526Y-92855185D01*
X154940941Y-92891311D01*
X154941500Y-92903169D01*
X154941500Y-95570406D01*
X154921498Y-95638527D01*
X154904595Y-95659501D01*
X153444500Y-97119595D01*
X153382188Y-97153621D01*
X153355405Y-97156500D01*
X152754594Y-97156500D01*
X152686473Y-97136498D01*
X152665499Y-97119595D01*
X151895858Y-96349954D01*
X151861832Y-96287642D01*
X151866897Y-96216827D01*
X151909444Y-96159991D01*
X151958755Y-96137612D01*
X152047288Y-96118794D01*
X152053319Y-96116109D01*
X152215722Y-96043803D01*
X152215724Y-96043802D01*
X152221752Y-96041118D01*
X152325940Y-95965421D01*
X152392806Y-95941563D01*
X152461958Y-95957643D01*
X152474056Y-95965418D01*
X152578248Y-96041118D01*
X152584276Y-96043802D01*
X152584278Y-96043803D01*
X152746681Y-96116109D01*
X152752712Y-96118794D01*
X152841243Y-96137612D01*
X152933056Y-96157128D01*
X152933061Y-96157128D01*
X152939513Y-96158500D01*
X153130487Y-96158500D01*
X153136939Y-96157128D01*
X153136944Y-96157128D01*
X153228757Y-96137612D01*
X153317288Y-96118794D01*
X153323319Y-96116109D01*
X153485722Y-96043803D01*
X153485724Y-96043802D01*
X153491752Y-96041118D01*
X153646253Y-95928866D01*
X153774040Y-95786944D01*
X153869527Y-95621556D01*
X153928542Y-95439928D01*
X153938861Y-95341753D01*
X153947814Y-95256565D01*
X153948504Y-95250000D01*
X153937772Y-95147892D01*
X153929232Y-95066635D01*
X153929232Y-95066633D01*
X153928542Y-95060072D01*
X153869527Y-94878444D01*
X153774040Y-94713056D01*
X153700863Y-94631785D01*
X153670147Y-94567779D01*
X153668500Y-94547476D01*
X153668500Y-87053767D01*
X153669027Y-87042584D01*
X153670702Y-87035091D01*
X153668562Y-86967000D01*
X153668500Y-86963043D01*
X153668500Y-86935144D01*
X153667996Y-86931153D01*
X153667063Y-86919311D01*
X153667042Y-86918621D01*
X153665674Y-86875111D01*
X153663462Y-86867497D01*
X153663461Y-86867492D01*
X153660023Y-86855659D01*
X153656012Y-86836295D01*
X153654467Y-86824064D01*
X153653474Y-86816203D01*
X153650557Y-86808836D01*
X153650556Y-86808831D01*
X153637198Y-86775092D01*
X153633354Y-86763865D01*
X153631232Y-86756561D01*
X153621018Y-86721407D01*
X153610707Y-86703972D01*
X153602012Y-86686224D01*
X153594552Y-86667383D01*
X153588959Y-86659684D01*
X153568564Y-86631613D01*
X153562048Y-86621693D01*
X153543580Y-86590465D01*
X153543578Y-86590462D01*
X153539542Y-86583638D01*
X153525221Y-86569317D01*
X153512380Y-86554283D01*
X153505131Y-86544306D01*
X153500472Y-86537893D01*
X153466395Y-86509702D01*
X153457616Y-86501712D01*
X149641227Y-82685323D01*
X149607202Y-82623012D01*
X149614495Y-82546631D01*
X149616000Y-82543116D01*
X149616000Y-82537967D01*
X150124000Y-82537967D01*
X150127973Y-82551498D01*
X150136522Y-82552727D01*
X150313761Y-82505236D01*
X150324053Y-82501490D01*
X150521511Y-82409414D01*
X150531007Y-82403931D01*
X150709467Y-82278972D01*
X150717875Y-82271916D01*
X150871916Y-82117875D01*
X150878972Y-82109467D01*
X151003931Y-81931007D01*
X151009414Y-81921511D01*
X151101490Y-81724053D01*
X151105236Y-81713761D01*
X151151394Y-81541497D01*
X151151058Y-81527401D01*
X151143116Y-81524000D01*
X150142115Y-81524000D01*
X150126876Y-81528475D01*
X150125671Y-81529865D01*
X150124000Y-81537548D01*
X150124000Y-82537967D01*
X149616000Y-82537967D01*
X149616000Y-81542115D01*
X149611525Y-81526876D01*
X149610135Y-81525671D01*
X149602452Y-81524000D01*
X148602033Y-81524000D01*
X148579355Y-81530659D01*
X148508359Y-81530659D01*
X148454764Y-81498859D01*
X146141218Y-79185313D01*
X146107192Y-79123001D01*
X146109755Y-79059589D01*
X146117827Y-79033023D01*
X146122370Y-79018069D01*
X146151529Y-78796590D01*
X146151611Y-78793240D01*
X146153074Y-78733365D01*
X146153074Y-78733361D01*
X146153156Y-78730000D01*
X146134852Y-78507361D01*
X146080431Y-78290702D01*
X145991354Y-78085840D01*
X145878213Y-77910951D01*
X145872822Y-77902617D01*
X145872820Y-77902614D01*
X145870014Y-77898277D01*
X145719670Y-77733051D01*
X145715619Y-77729852D01*
X145715615Y-77729848D01*
X145548414Y-77597800D01*
X145548410Y-77597798D01*
X145544359Y-77594598D01*
X145503053Y-77571796D01*
X145453084Y-77521364D01*
X145438312Y-77451921D01*
X145463428Y-77385516D01*
X145490780Y-77358909D01*
X145539207Y-77324366D01*
X145669860Y-77231173D01*
X145701788Y-77199357D01*
X145824435Y-77077137D01*
X145828096Y-77073489D01*
X145859498Y-77029789D01*
X145955435Y-76896277D01*
X145958453Y-76892077D01*
X145978495Y-76851526D01*
X146055136Y-76696453D01*
X146055137Y-76696451D01*
X146057430Y-76691811D01*
X146122370Y-76478069D01*
X146151529Y-76256590D01*
X146153156Y-76190000D01*
X146134852Y-75967361D01*
X146080431Y-75750702D01*
X145991354Y-75545840D01*
X145870014Y-75358277D01*
X145719670Y-75193051D01*
X145715619Y-75189852D01*
X145715615Y-75189848D01*
X145548414Y-75057800D01*
X145548410Y-75057798D01*
X145544359Y-75054598D01*
X145503053Y-75031796D01*
X145453084Y-74981364D01*
X145438312Y-74911921D01*
X145463428Y-74845516D01*
X145490780Y-74818909D01*
X145539207Y-74784366D01*
X145669860Y-74691173D01*
X145701788Y-74659357D01*
X145824435Y-74537137D01*
X145828096Y-74533489D01*
X145859498Y-74489789D01*
X145955435Y-74356277D01*
X145958453Y-74352077D01*
X145978628Y-74311257D01*
X146055136Y-74156453D01*
X146055137Y-74156451D01*
X146057430Y-74151811D01*
X146122370Y-73938069D01*
X146151529Y-73716590D01*
X146153156Y-73650000D01*
X146134852Y-73427361D01*
X146080431Y-73210702D01*
X145991354Y-73005840D01*
X145923632Y-72901158D01*
X145872822Y-72822617D01*
X145872820Y-72822614D01*
X145870014Y-72818277D01*
X145719670Y-72653051D01*
X145715619Y-72649852D01*
X145715615Y-72649848D01*
X145548414Y-72517800D01*
X145548410Y-72517798D01*
X145544359Y-72514598D01*
X145503053Y-72491796D01*
X145453084Y-72441364D01*
X145438312Y-72371921D01*
X145463428Y-72305516D01*
X145490780Y-72278909D01*
X145539207Y-72244366D01*
X145669860Y-72151173D01*
X145701788Y-72119357D01*
X145824435Y-71997137D01*
X145828096Y-71993489D01*
X145851190Y-71961351D01*
X145955435Y-71816277D01*
X145958453Y-71812077D01*
X145960746Y-71807437D01*
X145962446Y-71804608D01*
X146014674Y-71756518D01*
X146070451Y-71743500D01*
X147015406Y-71743500D01*
X147083527Y-71763502D01*
X147104501Y-71780405D01*
X148106343Y-72782247D01*
X148113887Y-72790537D01*
X148118000Y-72797018D01*
X148123777Y-72802443D01*
X148167667Y-72843658D01*
X148170509Y-72846413D01*
X148190230Y-72866134D01*
X148193425Y-72868612D01*
X148202447Y-72876318D01*
X148234679Y-72906586D01*
X148241628Y-72910406D01*
X148252432Y-72916346D01*
X148268956Y-72927199D01*
X148284959Y-72939613D01*
X148325543Y-72957176D01*
X148336173Y-72962383D01*
X148374940Y-72983695D01*
X148382617Y-72985666D01*
X148382622Y-72985668D01*
X148394558Y-72988732D01*
X148413266Y-72995137D01*
X148431855Y-73003181D01*
X148439680Y-73004420D01*
X148439682Y-73004421D01*
X148475519Y-73010097D01*
X148487140Y-73012504D01*
X148522289Y-73021528D01*
X148529970Y-73023500D01*
X148537253Y-73023500D01*
X148602066Y-73051766D01*
X148641468Y-73110825D01*
X148642686Y-73181812D01*
X148639600Y-73191487D01*
X148638039Y-73195774D01*
X148635716Y-73200757D01*
X148634294Y-73206065D01*
X148634293Y-73206067D01*
X148577881Y-73416598D01*
X148576457Y-73421913D01*
X148556502Y-73650000D01*
X148576457Y-73878087D01*
X148577881Y-73883400D01*
X148577881Y-73883402D01*
X148591155Y-73932939D01*
X148635716Y-74099243D01*
X148638039Y-74104224D01*
X148638039Y-74104225D01*
X148730151Y-74301762D01*
X148730154Y-74301767D01*
X148732477Y-74306749D01*
X148735634Y-74311257D01*
X148859566Y-74488250D01*
X148863802Y-74494300D01*
X149025700Y-74656198D01*
X149030208Y-74659355D01*
X149030211Y-74659357D01*
X149070445Y-74687529D01*
X149213251Y-74787523D01*
X149218233Y-74789846D01*
X149218238Y-74789849D01*
X149252457Y-74805805D01*
X149305742Y-74852722D01*
X149325203Y-74920999D01*
X149304661Y-74988959D01*
X149252457Y-75034195D01*
X149218238Y-75050151D01*
X149218233Y-75050154D01*
X149213251Y-75052477D01*
X149140676Y-75103295D01*
X149030211Y-75180643D01*
X149030208Y-75180645D01*
X149025700Y-75183802D01*
X148863802Y-75345700D01*
X148860645Y-75350208D01*
X148860643Y-75350211D01*
X148846121Y-75370951D01*
X148732477Y-75533251D01*
X148730154Y-75538233D01*
X148730151Y-75538238D01*
X148645719Y-75719305D01*
X148635716Y-75740757D01*
X148634294Y-75746065D01*
X148634293Y-75746067D01*
X148577881Y-75956598D01*
X148576457Y-75961913D01*
X148556502Y-76190000D01*
X148576457Y-76418087D01*
X148577881Y-76423400D01*
X148577881Y-76423402D01*
X148591155Y-76472939D01*
X148635716Y-76639243D01*
X148638039Y-76644224D01*
X148638039Y-76644225D01*
X148730151Y-76841762D01*
X148730154Y-76841767D01*
X148732477Y-76846749D01*
X148777080Y-76910448D01*
X148859566Y-77028250D01*
X148863802Y-77034300D01*
X149025700Y-77196198D01*
X149030208Y-77199355D01*
X149030211Y-77199357D01*
X149070445Y-77227529D01*
X149213251Y-77327523D01*
X149218233Y-77329846D01*
X149218238Y-77329849D01*
X149252457Y-77345805D01*
X149305742Y-77392722D01*
X149325203Y-77460999D01*
X149304661Y-77528959D01*
X149252457Y-77574195D01*
X149218238Y-77590151D01*
X149218233Y-77590154D01*
X149213251Y-77592477D01*
X149108389Y-77665902D01*
X149030211Y-77720643D01*
X149030208Y-77720645D01*
X149025700Y-77723802D01*
X148863802Y-77885700D01*
X148860645Y-77890208D01*
X148860643Y-77890211D01*
X148850673Y-77904450D01*
X148732477Y-78073251D01*
X148730154Y-78078233D01*
X148730151Y-78078238D01*
X148646683Y-78257237D01*
X148635716Y-78280757D01*
X148634294Y-78286065D01*
X148634293Y-78286067D01*
X148577881Y-78496598D01*
X148576457Y-78501913D01*
X148556502Y-78730000D01*
X148576457Y-78958087D01*
X148577881Y-78963400D01*
X148577881Y-78963402D01*
X148629710Y-79156827D01*
X148635716Y-79179243D01*
X148638039Y-79184224D01*
X148638039Y-79184225D01*
X148730151Y-79381762D01*
X148730154Y-79381767D01*
X148732477Y-79386749D01*
X148767970Y-79437438D01*
X148859566Y-79568250D01*
X148863802Y-79574300D01*
X149025700Y-79736198D01*
X149030208Y-79739355D01*
X149030211Y-79739357D01*
X149089931Y-79781173D01*
X149213251Y-79867523D01*
X149218233Y-79869846D01*
X149218238Y-79869849D01*
X149253049Y-79886081D01*
X149306334Y-79932998D01*
X149325795Y-80001275D01*
X149305253Y-80069235D01*
X149253049Y-80114471D01*
X149218489Y-80130586D01*
X149208993Y-80136069D01*
X149030533Y-80261028D01*
X149022125Y-80268084D01*
X148868084Y-80422125D01*
X148861028Y-80430533D01*
X148736069Y-80608993D01*
X148730586Y-80618489D01*
X148638510Y-80815947D01*
X148634764Y-80826239D01*
X148588606Y-80998503D01*
X148588942Y-81012599D01*
X148596884Y-81016000D01*
X151137967Y-81016000D01*
X151151498Y-81012027D01*
X151152727Y-81003478D01*
X151105236Y-80826239D01*
X151101490Y-80815947D01*
X151009414Y-80618489D01*
X151003931Y-80608993D01*
X150878972Y-80430533D01*
X150871916Y-80422125D01*
X150717875Y-80268084D01*
X150709467Y-80261028D01*
X150531007Y-80136069D01*
X150521511Y-80130586D01*
X150486951Y-80114471D01*
X150433666Y-80067554D01*
X150414205Y-79999277D01*
X150434747Y-79931317D01*
X150486951Y-79886081D01*
X150521762Y-79869849D01*
X150521767Y-79869846D01*
X150526749Y-79867523D01*
X150650069Y-79781173D01*
X150709789Y-79739357D01*
X150709792Y-79739355D01*
X150714300Y-79736198D01*
X150876198Y-79574300D01*
X150879357Y-79569789D01*
X150986181Y-79417229D01*
X151041638Y-79372901D01*
X151089394Y-79363500D01*
X154871233Y-79363500D01*
X154882416Y-79364027D01*
X154889909Y-79365702D01*
X154897835Y-79365453D01*
X154897836Y-79365453D01*
X154957986Y-79363562D01*
X154961945Y-79363500D01*
X154989856Y-79363500D01*
X154993791Y-79363003D01*
X154993856Y-79362995D01*
X155005693Y-79362062D01*
X155037951Y-79361048D01*
X155041970Y-79360922D01*
X155049889Y-79360673D01*
X155069343Y-79355021D01*
X155088700Y-79351013D01*
X155100930Y-79349468D01*
X155100931Y-79349468D01*
X155108797Y-79348474D01*
X155116168Y-79345555D01*
X155116170Y-79345555D01*
X155149912Y-79332196D01*
X155161142Y-79328351D01*
X155195983Y-79318229D01*
X155195984Y-79318229D01*
X155203593Y-79316018D01*
X155210412Y-79311985D01*
X155210417Y-79311983D01*
X155221028Y-79305707D01*
X155238776Y-79297012D01*
X155257617Y-79289552D01*
X155293387Y-79263564D01*
X155303307Y-79257048D01*
X155334535Y-79238580D01*
X155334538Y-79238578D01*
X155341362Y-79234542D01*
X155355683Y-79220221D01*
X155370717Y-79207380D01*
X155380694Y-79200131D01*
X155387107Y-79195472D01*
X155392157Y-79189368D01*
X155392162Y-79189363D01*
X155415293Y-79161402D01*
X155423283Y-79152621D01*
X155963411Y-78612494D01*
X156025723Y-78578469D01*
X156096539Y-78583534D01*
X156153374Y-78626081D01*
X156178185Y-78692601D01*
X156178026Y-78712573D01*
X156176981Y-78724515D01*
X156176981Y-78724525D01*
X156176502Y-78730000D01*
X156196457Y-78958087D01*
X156197881Y-78963400D01*
X156197881Y-78963402D01*
X156249710Y-79156827D01*
X156255716Y-79179243D01*
X156258039Y-79184224D01*
X156258039Y-79184225D01*
X156350151Y-79381762D01*
X156350154Y-79381767D01*
X156352477Y-79386749D01*
X156387970Y-79437438D01*
X156479566Y-79568250D01*
X156483802Y-79574300D01*
X156645700Y-79736198D01*
X156650208Y-79739355D01*
X156650211Y-79739357D01*
X156709931Y-79781173D01*
X156833251Y-79867523D01*
X156838233Y-79869846D01*
X156838238Y-79869849D01*
X156872457Y-79885805D01*
X156925742Y-79932722D01*
X156945203Y-80000999D01*
X156924661Y-80068959D01*
X156872457Y-80114195D01*
X156838238Y-80130151D01*
X156838233Y-80130154D01*
X156833251Y-80132477D01*
X156811368Y-80147800D01*
X156650211Y-80260643D01*
X156650208Y-80260645D01*
X156645700Y-80263802D01*
X156483802Y-80425700D01*
X156352477Y-80613251D01*
X156350154Y-80618233D01*
X156350151Y-80618238D01*
X156265719Y-80799305D01*
X156255716Y-80820757D01*
X156254294Y-80826065D01*
X156254293Y-80826067D01*
X156197881Y-81036598D01*
X156196457Y-81041913D01*
X156176502Y-81270000D01*
X156196457Y-81498087D01*
X156197881Y-81503400D01*
X156197881Y-81503402D01*
X156247248Y-81687639D01*
X156255716Y-81719243D01*
X156258039Y-81724224D01*
X156258039Y-81724225D01*
X156350151Y-81921762D01*
X156350154Y-81921767D01*
X156352477Y-81926749D01*
X156355634Y-81931257D01*
X156479566Y-82108250D01*
X156483802Y-82114300D01*
X156645700Y-82276198D01*
X156650208Y-82279355D01*
X156650211Y-82279357D01*
X156714212Y-82324171D01*
X156833251Y-82407523D01*
X156838233Y-82409846D01*
X156838238Y-82409849D01*
X157026929Y-82497836D01*
X157040757Y-82504284D01*
X157046065Y-82505706D01*
X157046067Y-82505707D01*
X157256598Y-82562119D01*
X157256600Y-82562119D01*
X157261913Y-82563543D01*
X157490000Y-82583498D01*
X157718087Y-82563543D01*
X157723400Y-82562119D01*
X157723402Y-82562119D01*
X157933933Y-82505707D01*
X157933935Y-82505706D01*
X157939243Y-82504284D01*
X157953071Y-82497836D01*
X158141762Y-82409849D01*
X158141767Y-82409846D01*
X158146749Y-82407523D01*
X158265788Y-82324171D01*
X158329789Y-82279357D01*
X158329792Y-82279355D01*
X158334300Y-82276198D01*
X158496198Y-82114300D01*
X158500435Y-82108250D01*
X158624366Y-81931257D01*
X158627523Y-81926749D01*
X158629846Y-81921767D01*
X158629849Y-81921762D01*
X158721961Y-81724225D01*
X158721961Y-81724224D01*
X158724284Y-81719243D01*
X158732753Y-81687639D01*
X158782119Y-81503402D01*
X158782119Y-81503400D01*
X158783543Y-81498087D01*
X158803498Y-81270000D01*
X158783543Y-81041913D01*
X158782119Y-81036598D01*
X158725707Y-80826067D01*
X158725706Y-80826065D01*
X158724284Y-80820757D01*
X158714281Y-80799305D01*
X158629849Y-80618238D01*
X158629846Y-80618233D01*
X158627523Y-80613251D01*
X158496198Y-80425700D01*
X158334300Y-80263802D01*
X158329792Y-80260645D01*
X158329789Y-80260643D01*
X158168632Y-80147800D01*
X158146749Y-80132477D01*
X158141767Y-80130154D01*
X158141762Y-80130151D01*
X158107543Y-80114195D01*
X158054258Y-80067278D01*
X158034797Y-79999001D01*
X158055339Y-79931041D01*
X158107543Y-79885805D01*
X158141762Y-79869849D01*
X158141767Y-79869846D01*
X158146749Y-79867523D01*
X158270069Y-79781173D01*
X158329789Y-79739357D01*
X158329792Y-79739355D01*
X158334300Y-79736198D01*
X158496198Y-79574300D01*
X158500435Y-79568250D01*
X158592030Y-79437438D01*
X158627523Y-79386749D01*
X158629846Y-79381767D01*
X158629849Y-79381762D01*
X158721961Y-79184225D01*
X158721961Y-79184224D01*
X158724284Y-79179243D01*
X158730291Y-79156827D01*
X158782119Y-78963402D01*
X158782119Y-78963400D01*
X158783543Y-78958087D01*
X158803498Y-78730000D01*
X158783543Y-78501913D01*
X158780273Y-78489707D01*
X158739835Y-78338794D01*
X158724284Y-78280757D01*
X158721960Y-78275773D01*
X158720804Y-78272597D01*
X158716299Y-78201743D01*
X158750816Y-78139702D01*
X158813396Y-78106171D01*
X158839204Y-78103500D01*
X159097300Y-78103500D01*
X159165421Y-78123502D01*
X159184647Y-78139843D01*
X159184920Y-78139540D01*
X159189832Y-78143963D01*
X159194247Y-78148866D01*
X159348748Y-78261118D01*
X159354776Y-78263802D01*
X159354778Y-78263803D01*
X159448926Y-78305720D01*
X159523212Y-78338794D01*
X159616612Y-78358647D01*
X159703556Y-78377128D01*
X159703561Y-78377128D01*
X159710013Y-78378500D01*
X159770500Y-78378500D01*
X159838621Y-78398502D01*
X159885114Y-78452158D01*
X159896500Y-78504500D01*
X159896500Y-86498133D01*
X159876498Y-86566254D01*
X159842772Y-86601345D01*
X159810700Y-86623802D01*
X159648802Y-86785700D01*
X159626345Y-86817771D01*
X159570890Y-86862099D01*
X159523133Y-86871500D01*
X158645872Y-86871500D01*
X158577751Y-86851498D01*
X158542659Y-86817771D01*
X158509357Y-86770211D01*
X158509355Y-86770208D01*
X158506198Y-86765700D01*
X158344300Y-86603802D01*
X158339792Y-86600645D01*
X158339789Y-86600643D01*
X158229324Y-86523295D01*
X158156749Y-86472477D01*
X158151767Y-86470154D01*
X158151762Y-86470151D01*
X157954225Y-86378039D01*
X157954224Y-86378039D01*
X157949243Y-86375716D01*
X157943935Y-86374294D01*
X157943933Y-86374293D01*
X157733402Y-86317881D01*
X157733400Y-86317881D01*
X157728087Y-86316457D01*
X157500000Y-86296502D01*
X157271913Y-86316457D01*
X157266600Y-86317881D01*
X157266598Y-86317881D01*
X157056067Y-86374293D01*
X157056065Y-86374294D01*
X157050757Y-86375716D01*
X157045776Y-86378039D01*
X157045775Y-86378039D01*
X156848238Y-86470151D01*
X156848233Y-86470154D01*
X156843251Y-86472477D01*
X156770676Y-86523295D01*
X156660211Y-86600643D01*
X156660208Y-86600645D01*
X156655700Y-86603802D01*
X156493802Y-86765700D01*
X156490645Y-86770208D01*
X156490643Y-86770211D01*
X156476639Y-86790211D01*
X156362477Y-86953251D01*
X156360154Y-86958233D01*
X156360151Y-86958238D01*
X156292883Y-87102497D01*
X156265716Y-87160757D01*
X156264294Y-87166065D01*
X156264293Y-87166067D01*
X156227704Y-87302617D01*
X156206457Y-87381913D01*
X156186502Y-87610000D01*
X156206457Y-87838087D01*
X156207881Y-87843400D01*
X156207881Y-87843402D01*
X156262278Y-88046411D01*
X156265716Y-88059243D01*
X156268039Y-88064224D01*
X156268039Y-88064225D01*
X156360151Y-88261762D01*
X156360154Y-88261767D01*
X156362477Y-88266749D01*
X156493802Y-88454300D01*
X156655700Y-88616198D01*
X156660208Y-88619355D01*
X156660211Y-88619357D01*
X156678697Y-88632301D01*
X156843251Y-88747523D01*
X156848233Y-88749846D01*
X156848238Y-88749849D01*
X156883049Y-88766081D01*
X156936334Y-88812998D01*
X156955795Y-88881275D01*
X156935253Y-88949235D01*
X156883049Y-88994471D01*
X156848489Y-89010586D01*
X156838993Y-89016069D01*
X156660533Y-89141028D01*
X156652125Y-89148084D01*
X156498084Y-89302125D01*
X156491028Y-89310533D01*
X156366069Y-89488993D01*
X156360586Y-89498489D01*
X156268510Y-89695947D01*
X156264764Y-89706239D01*
X156218606Y-89878503D01*
X156218942Y-89892599D01*
X156226884Y-89896000D01*
X158767967Y-89896000D01*
X158781498Y-89892027D01*
X158782727Y-89883478D01*
X158735236Y-89706239D01*
X158731490Y-89695947D01*
X158639414Y-89498489D01*
X158633931Y-89488993D01*
X158508972Y-89310533D01*
X158501916Y-89302125D01*
X158347875Y-89148084D01*
X158339467Y-89141028D01*
X158161007Y-89016069D01*
X158151511Y-89010586D01*
X158116951Y-88994471D01*
X158063666Y-88947554D01*
X158044205Y-88879277D01*
X158064747Y-88811317D01*
X158116951Y-88766081D01*
X158151762Y-88749849D01*
X158151767Y-88749846D01*
X158156749Y-88747523D01*
X158321303Y-88632301D01*
X158339789Y-88619357D01*
X158339792Y-88619355D01*
X158344300Y-88616198D01*
X158506198Y-88454300D01*
X158509357Y-88449789D01*
X158509359Y-88449787D01*
X158514649Y-88442231D01*
X158570106Y-88397901D01*
X158617863Y-88388500D01*
X159523133Y-88388500D01*
X159591254Y-88408502D01*
X159626345Y-88442228D01*
X159648802Y-88474300D01*
X159810700Y-88636198D01*
X159815208Y-88639355D01*
X159815211Y-88639357D01*
X159862319Y-88672342D01*
X159998251Y-88767523D01*
X160003233Y-88769846D01*
X160003238Y-88769849D01*
X160200775Y-88861961D01*
X160205757Y-88864284D01*
X160211065Y-88865706D01*
X160211067Y-88865707D01*
X160421598Y-88922119D01*
X160421600Y-88922119D01*
X160426913Y-88923543D01*
X160655000Y-88943498D01*
X160883087Y-88923543D01*
X160888400Y-88922119D01*
X160888402Y-88922119D01*
X161098933Y-88865707D01*
X161098935Y-88865706D01*
X161104243Y-88864284D01*
X161109225Y-88861961D01*
X161306762Y-88769849D01*
X161306767Y-88769846D01*
X161311749Y-88767523D01*
X161447681Y-88672342D01*
X161494789Y-88639357D01*
X161494792Y-88639355D01*
X161499300Y-88636198D01*
X161661198Y-88474300D01*
X161670720Y-88460702D01*
X161760142Y-88332994D01*
X161792523Y-88286749D01*
X161794846Y-88281767D01*
X161794849Y-88281762D01*
X161886961Y-88084225D01*
X161886961Y-88084224D01*
X161889284Y-88079243D01*
X161891060Y-88072617D01*
X161947119Y-87863402D01*
X161947119Y-87863400D01*
X161948543Y-87858087D01*
X161968498Y-87630000D01*
X161948543Y-87401913D01*
X161945880Y-87391973D01*
X161890707Y-87186067D01*
X161890706Y-87186065D01*
X161889284Y-87180757D01*
X161882434Y-87166067D01*
X161794849Y-86978238D01*
X161794846Y-86978233D01*
X161792523Y-86973251D01*
X161706572Y-86850500D01*
X161664357Y-86790211D01*
X161664355Y-86790208D01*
X161661198Y-86785700D01*
X161499300Y-86623802D01*
X161467229Y-86601345D01*
X161422901Y-86545890D01*
X161413500Y-86498133D01*
X161413500Y-72756371D01*
X161433502Y-72688250D01*
X161450405Y-72667276D01*
X163683911Y-70433770D01*
X163698323Y-70421384D01*
X163709918Y-70412851D01*
X163709923Y-70412846D01*
X163715818Y-70408508D01*
X163720557Y-70402930D01*
X163720560Y-70402927D01*
X163750035Y-70368232D01*
X163756965Y-70360716D01*
X163762660Y-70355021D01*
X163767518Y-70348880D01*
X163780281Y-70332749D01*
X163783072Y-70329345D01*
X163825591Y-70279297D01*
X163825592Y-70279295D01*
X163830333Y-70273715D01*
X163833661Y-70267199D01*
X163837020Y-70262162D01*
X163840194Y-70257023D01*
X163844734Y-70251284D01*
X163875636Y-70185163D01*
X163877569Y-70181209D01*
X163882626Y-70171305D01*
X163910769Y-70116192D01*
X163912510Y-70109076D01*
X163914604Y-70103446D01*
X163916523Y-70097679D01*
X163919621Y-70091050D01*
X163934483Y-70019600D01*
X163935453Y-70015315D01*
X163952808Y-69944390D01*
X163953500Y-69933236D01*
X163953536Y-69933238D01*
X163953775Y-69929248D01*
X163954150Y-69925050D01*
X163955640Y-69917885D01*
X163953546Y-69840479D01*
X163953500Y-69837072D01*
X163953500Y-64202070D01*
X163954933Y-64183120D01*
X163957099Y-64168885D01*
X163957099Y-64168881D01*
X163958199Y-64161651D01*
X163956582Y-64141762D01*
X163953915Y-64108982D01*
X163953500Y-64098767D01*
X163953500Y-64090707D01*
X163952913Y-64085666D01*
X163950211Y-64062497D01*
X163949778Y-64058121D01*
X163944454Y-63992662D01*
X163944453Y-63992659D01*
X163943860Y-63985364D01*
X163941604Y-63978400D01*
X163940417Y-63972461D01*
X163939030Y-63966590D01*
X163938182Y-63959319D01*
X163935686Y-63952443D01*
X163935684Y-63952434D01*
X163913275Y-63890702D01*
X163911865Y-63886598D01*
X163889352Y-63817101D01*
X163885556Y-63810846D01*
X163883057Y-63805387D01*
X163880329Y-63799939D01*
X163877833Y-63793063D01*
X163837805Y-63732010D01*
X163835481Y-63728327D01*
X163832493Y-63723402D01*
X163797595Y-63665893D01*
X163790198Y-63657517D01*
X163790225Y-63657493D01*
X163787570Y-63654499D01*
X163784868Y-63651268D01*
X163780856Y-63645148D01*
X163724617Y-63591872D01*
X163722175Y-63589494D01*
X163143770Y-63011089D01*
X163131384Y-62996677D01*
X163122851Y-62985082D01*
X163122846Y-62985077D01*
X163118508Y-62979182D01*
X163112930Y-62974443D01*
X163112927Y-62974440D01*
X163078232Y-62944965D01*
X163070716Y-62938035D01*
X163065021Y-62932340D01*
X163058880Y-62927482D01*
X163042749Y-62914719D01*
X163039345Y-62911928D01*
X162989297Y-62869409D01*
X162989295Y-62869408D01*
X162983715Y-62864667D01*
X162977199Y-62861339D01*
X162972150Y-62857972D01*
X162967021Y-62854805D01*
X162961284Y-62850266D01*
X162895125Y-62819345D01*
X162891225Y-62817439D01*
X162826192Y-62784231D01*
X162819084Y-62782492D01*
X162813441Y-62780393D01*
X162807678Y-62778476D01*
X162801050Y-62775378D01*
X162769791Y-62768876D01*
X162729588Y-62760514D01*
X162725299Y-62759543D01*
X162654390Y-62742192D01*
X162648788Y-62741844D01*
X162648785Y-62741844D01*
X162643236Y-62741500D01*
X162643238Y-62741464D01*
X162639245Y-62741225D01*
X162635053Y-62740851D01*
X162627885Y-62739360D01*
X162561675Y-62741151D01*
X162550479Y-62741454D01*
X162547072Y-62741500D01*
X161786867Y-62741500D01*
X161718746Y-62721498D01*
X161683655Y-62687772D01*
X161661198Y-62655700D01*
X161499300Y-62493802D01*
X161494792Y-62490645D01*
X161494789Y-62490643D01*
X161416611Y-62435902D01*
X161311749Y-62362477D01*
X161306767Y-62360154D01*
X161306762Y-62360151D01*
X161109225Y-62268039D01*
X161109224Y-62268039D01*
X161104243Y-62265716D01*
X161098935Y-62264294D01*
X161098933Y-62264293D01*
X160888402Y-62207881D01*
X160888400Y-62207881D01*
X160883087Y-62206457D01*
X160655000Y-62186502D01*
X160426913Y-62206457D01*
X160421600Y-62207881D01*
X160421598Y-62207881D01*
X160211067Y-62264293D01*
X160211065Y-62264294D01*
X160205757Y-62265716D01*
X160200776Y-62268039D01*
X160200775Y-62268039D01*
X160003238Y-62360151D01*
X160003233Y-62360154D01*
X159998251Y-62362477D01*
X159893389Y-62435902D01*
X159815211Y-62490643D01*
X159815208Y-62490645D01*
X159810700Y-62493802D01*
X159648802Y-62655700D01*
X159626345Y-62687771D01*
X159570890Y-62732099D01*
X159523133Y-62741500D01*
X158628869Y-62741500D01*
X158560748Y-62721498D01*
X158525657Y-62687772D01*
X158496198Y-62645700D01*
X158334300Y-62483802D01*
X158329792Y-62480645D01*
X158329789Y-62480643D01*
X158161030Y-62362477D01*
X158146749Y-62352477D01*
X158141767Y-62350154D01*
X158141762Y-62350151D01*
X157944225Y-62258039D01*
X157944224Y-62258039D01*
X157939243Y-62255716D01*
X157933935Y-62254294D01*
X157933933Y-62254293D01*
X157723402Y-62197881D01*
X157723400Y-62197881D01*
X157718087Y-62196457D01*
X157490000Y-62176502D01*
X157261913Y-62196457D01*
X157256600Y-62197881D01*
X157256598Y-62197881D01*
X157046067Y-62254293D01*
X157046065Y-62254294D01*
X157040757Y-62255716D01*
X157035776Y-62258039D01*
X157035775Y-62258039D01*
X156838238Y-62350151D01*
X156838233Y-62350154D01*
X156833251Y-62352477D01*
X156818970Y-62362477D01*
X156650211Y-62480643D01*
X156650208Y-62480645D01*
X156645700Y-62483802D01*
X156483802Y-62645700D01*
X156480645Y-62650208D01*
X156480643Y-62650211D01*
X156425902Y-62728389D01*
X156352477Y-62833251D01*
X156350154Y-62838233D01*
X156350151Y-62838238D01*
X156272695Y-63004345D01*
X156255716Y-63040757D01*
X156196457Y-63261913D01*
X156176502Y-63490000D01*
X156196457Y-63718087D01*
X156197881Y-63723400D01*
X156197881Y-63723402D01*
X156242160Y-63888650D01*
X156255716Y-63939243D01*
X156258039Y-63944224D01*
X156258039Y-63944225D01*
X156350151Y-64141762D01*
X156350154Y-64141767D01*
X156352477Y-64146749D01*
X156483802Y-64334300D01*
X156645700Y-64496198D01*
X156650208Y-64499355D01*
X156650211Y-64499357D01*
X156659981Y-64506198D01*
X156833251Y-64627523D01*
X156838233Y-64629846D01*
X156838238Y-64629849D01*
X156873049Y-64646081D01*
X156926334Y-64692998D01*
X156945795Y-64761275D01*
X156925253Y-64829235D01*
X156873049Y-64874471D01*
X156838489Y-64890586D01*
X156828993Y-64896069D01*
X156650533Y-65021028D01*
X156642125Y-65028084D01*
X156488084Y-65182125D01*
X156481028Y-65190533D01*
X156356069Y-65368993D01*
X156350586Y-65378489D01*
X156258510Y-65575947D01*
X156254764Y-65586239D01*
X156208606Y-65758503D01*
X156208942Y-65772599D01*
X156216884Y-65776000D01*
X158757967Y-65776000D01*
X158771498Y-65772027D01*
X158772727Y-65763478D01*
X158725236Y-65586239D01*
X158721490Y-65575947D01*
X158629414Y-65378489D01*
X158623931Y-65368993D01*
X158498972Y-65190533D01*
X158491916Y-65182125D01*
X158337875Y-65028084D01*
X158329467Y-65021028D01*
X158151007Y-64896069D01*
X158141511Y-64890586D01*
X158106951Y-64874471D01*
X158053666Y-64827554D01*
X158034205Y-64759277D01*
X158054747Y-64691317D01*
X158106951Y-64646081D01*
X158141762Y-64629849D01*
X158141767Y-64629846D01*
X158146749Y-64627523D01*
X158320019Y-64506198D01*
X158329789Y-64499357D01*
X158329792Y-64499355D01*
X158334300Y-64496198D01*
X158496198Y-64334300D01*
X158511652Y-64312229D01*
X158567108Y-64267901D01*
X158614865Y-64258500D01*
X159523133Y-64258500D01*
X159591254Y-64278502D01*
X159626345Y-64312228D01*
X159648802Y-64344300D01*
X159810700Y-64506198D01*
X159815208Y-64509355D01*
X159815211Y-64509357D01*
X159854268Y-64536705D01*
X159998251Y-64637523D01*
X160003233Y-64639846D01*
X160003238Y-64639849D01*
X160200775Y-64731961D01*
X160205757Y-64734284D01*
X160211065Y-64735706D01*
X160211067Y-64735707D01*
X160421598Y-64792119D01*
X160421600Y-64792119D01*
X160426913Y-64793543D01*
X160655000Y-64813498D01*
X160883087Y-64793543D01*
X160888400Y-64792119D01*
X160888402Y-64792119D01*
X161098933Y-64735707D01*
X161098935Y-64735706D01*
X161104243Y-64734284D01*
X161109225Y-64731961D01*
X161306762Y-64639849D01*
X161306767Y-64639846D01*
X161311749Y-64637523D01*
X161455732Y-64536705D01*
X161494789Y-64509357D01*
X161494792Y-64509355D01*
X161499300Y-64506198D01*
X161661198Y-64344300D01*
X161683655Y-64312229D01*
X161739110Y-64267901D01*
X161786867Y-64258500D01*
X162193629Y-64258500D01*
X162261750Y-64278502D01*
X162282724Y-64295405D01*
X162399595Y-64412276D01*
X162433621Y-64474588D01*
X162436500Y-64501371D01*
X162436500Y-69483629D01*
X162416498Y-69551750D01*
X162399595Y-69572724D01*
X161090495Y-70881824D01*
X161028183Y-70915850D01*
X160957368Y-70910785D01*
X160900532Y-70868238D01*
X160881567Y-70831665D01*
X160856569Y-70754729D01*
X160854527Y-70748444D01*
X160850773Y-70741941D01*
X160817314Y-70683990D01*
X160759040Y-70583056D01*
X160749807Y-70572801D01*
X160635675Y-70446045D01*
X160635674Y-70446044D01*
X160631253Y-70441134D01*
X160512729Y-70355021D01*
X160482094Y-70332763D01*
X160482093Y-70332762D01*
X160476752Y-70328882D01*
X160470724Y-70326198D01*
X160470722Y-70326197D01*
X160308319Y-70253891D01*
X160308318Y-70253891D01*
X160302288Y-70251206D01*
X160208888Y-70231353D01*
X160121944Y-70212872D01*
X160121939Y-70212872D01*
X160115487Y-70211500D01*
X160059595Y-70211500D01*
X159991474Y-70191498D01*
X159970500Y-70174595D01*
X159381967Y-69586062D01*
X159933493Y-69586062D01*
X159942789Y-69598077D01*
X159993994Y-69633931D01*
X160003489Y-69639414D01*
X160200947Y-69731490D01*
X160211239Y-69735236D01*
X160421688Y-69791625D01*
X160432481Y-69793528D01*
X160649525Y-69812517D01*
X160660475Y-69812517D01*
X160877519Y-69793528D01*
X160888312Y-69791625D01*
X161098761Y-69735236D01*
X161109053Y-69731490D01*
X161306511Y-69639414D01*
X161316006Y-69633931D01*
X161368048Y-69597491D01*
X161376424Y-69587012D01*
X161369356Y-69573566D01*
X160667812Y-68872022D01*
X160653868Y-68864408D01*
X160652035Y-68864539D01*
X160645420Y-68868790D01*
X159939923Y-69574287D01*
X159933493Y-69586062D01*
X159381967Y-69586062D01*
X159253652Y-69457747D01*
X159246112Y-69449461D01*
X159242000Y-69442982D01*
X159192348Y-69396356D01*
X159189507Y-69393602D01*
X159169770Y-69373865D01*
X159166573Y-69371385D01*
X159157551Y-69363680D01*
X159144122Y-69351069D01*
X159125321Y-69333414D01*
X159118375Y-69329595D01*
X159118372Y-69329593D01*
X159107566Y-69323652D01*
X159091047Y-69312801D01*
X159090583Y-69312441D01*
X159075041Y-69300386D01*
X159067772Y-69297241D01*
X159067768Y-69297238D01*
X159034463Y-69282826D01*
X159023813Y-69277609D01*
X158985060Y-69256305D01*
X158965437Y-69251267D01*
X158946734Y-69244863D01*
X158935420Y-69239967D01*
X158935419Y-69239967D01*
X158928145Y-69236819D01*
X158920322Y-69235580D01*
X158920312Y-69235577D01*
X158884476Y-69229901D01*
X158872856Y-69227495D01*
X158837712Y-69218472D01*
X158837709Y-69218472D01*
X158830030Y-69216500D01*
X158822101Y-69216500D01*
X158814288Y-69215513D01*
X158749211Y-69187131D01*
X158709809Y-69128071D01*
X158708592Y-69057085D01*
X158715885Y-69037254D01*
X158721961Y-69024225D01*
X158721961Y-69024224D01*
X158724284Y-69019243D01*
X158730291Y-68996827D01*
X158782119Y-68803402D01*
X158782119Y-68803400D01*
X158783543Y-68798087D01*
X158803498Y-68570000D01*
X158797853Y-68505475D01*
X159342483Y-68505475D01*
X159361472Y-68722519D01*
X159363375Y-68733312D01*
X159419764Y-68943761D01*
X159423510Y-68954053D01*
X159515586Y-69151511D01*
X159521069Y-69161006D01*
X159557509Y-69213048D01*
X159567988Y-69221424D01*
X159581434Y-69214356D01*
X160282978Y-68512812D01*
X160289356Y-68501132D01*
X161019408Y-68501132D01*
X161019539Y-68502965D01*
X161023790Y-68509580D01*
X161729287Y-69215077D01*
X161741062Y-69221507D01*
X161753077Y-69212211D01*
X161788931Y-69161006D01*
X161794414Y-69151511D01*
X161886490Y-68954053D01*
X161890236Y-68943761D01*
X161946625Y-68733312D01*
X161948528Y-68722519D01*
X161967517Y-68505475D01*
X161967517Y-68494525D01*
X161948528Y-68277481D01*
X161946625Y-68266688D01*
X161890236Y-68056239D01*
X161886490Y-68045947D01*
X161794414Y-67848489D01*
X161788931Y-67838994D01*
X161752491Y-67786952D01*
X161742012Y-67778576D01*
X161728566Y-67785644D01*
X161027022Y-68487188D01*
X161019408Y-68501132D01*
X160289356Y-68501132D01*
X160290592Y-68498868D01*
X160290461Y-68497035D01*
X160286210Y-68490420D01*
X159580713Y-67784923D01*
X159568938Y-67778493D01*
X159556923Y-67787789D01*
X159521069Y-67838994D01*
X159515586Y-67848489D01*
X159423510Y-68045947D01*
X159419764Y-68056239D01*
X159363375Y-68266688D01*
X159361472Y-68277481D01*
X159342483Y-68494525D01*
X159342483Y-68505475D01*
X158797853Y-68505475D01*
X158783543Y-68341913D01*
X158782119Y-68336598D01*
X158725707Y-68126067D01*
X158725706Y-68126065D01*
X158724284Y-68120757D01*
X158689400Y-68045947D01*
X158629849Y-67918238D01*
X158629846Y-67918233D01*
X158627523Y-67913251D01*
X158533164Y-67778493D01*
X158499357Y-67730211D01*
X158499355Y-67730208D01*
X158496198Y-67725700D01*
X158334300Y-67563802D01*
X158329792Y-67560645D01*
X158329789Y-67560643D01*
X158251611Y-67505902D01*
X158146749Y-67432477D01*
X158141767Y-67430154D01*
X158141762Y-67430151D01*
X158106951Y-67413919D01*
X158105894Y-67412988D01*
X159933576Y-67412988D01*
X159940644Y-67426434D01*
X160642188Y-68127978D01*
X160656132Y-68135592D01*
X160657965Y-68135461D01*
X160664580Y-68131210D01*
X161370077Y-67425713D01*
X161376507Y-67413938D01*
X161367211Y-67401923D01*
X161316006Y-67366069D01*
X161306511Y-67360586D01*
X161109053Y-67268510D01*
X161098761Y-67264764D01*
X160888312Y-67208375D01*
X160877519Y-67206472D01*
X160660475Y-67187483D01*
X160649525Y-67187483D01*
X160432481Y-67206472D01*
X160421688Y-67208375D01*
X160211239Y-67264764D01*
X160200947Y-67268510D01*
X160003489Y-67360586D01*
X159993994Y-67366069D01*
X159941952Y-67402509D01*
X159933576Y-67412988D01*
X158105894Y-67412988D01*
X158053666Y-67367002D01*
X158034205Y-67298725D01*
X158054747Y-67230765D01*
X158106951Y-67185529D01*
X158141511Y-67169414D01*
X158151007Y-67163931D01*
X158329467Y-67038972D01*
X158337875Y-67031916D01*
X158491916Y-66877875D01*
X158498972Y-66869467D01*
X158623931Y-66691007D01*
X158629414Y-66681511D01*
X158721490Y-66484053D01*
X158725236Y-66473761D01*
X158771394Y-66301497D01*
X158771058Y-66287401D01*
X158763116Y-66284000D01*
X156222033Y-66284000D01*
X156208502Y-66287973D01*
X156207273Y-66296522D01*
X156254764Y-66473761D01*
X156258510Y-66484053D01*
X156350586Y-66681511D01*
X156356069Y-66691007D01*
X156481028Y-66869467D01*
X156488084Y-66877875D01*
X156642125Y-67031916D01*
X156650533Y-67038972D01*
X156828993Y-67163931D01*
X156838489Y-67169414D01*
X156873049Y-67185529D01*
X156926334Y-67232446D01*
X156945795Y-67300723D01*
X156925253Y-67368683D01*
X156873049Y-67413919D01*
X156838238Y-67430151D01*
X156838233Y-67430154D01*
X156833251Y-67432477D01*
X156728389Y-67505902D01*
X156650211Y-67560643D01*
X156650208Y-67560645D01*
X156645700Y-67563802D01*
X156483802Y-67725700D01*
X156480645Y-67730209D01*
X156480643Y-67730211D01*
X156474303Y-67739266D01*
X156418846Y-67783594D01*
X156348227Y-67790903D01*
X156281994Y-67756090D01*
X155902574Y-67376669D01*
X155443647Y-66917742D01*
X155436113Y-66909463D01*
X155432000Y-66902982D01*
X155382348Y-66856356D01*
X155379507Y-66853602D01*
X155359770Y-66833865D01*
X155356573Y-66831385D01*
X155347551Y-66823680D01*
X155330249Y-66807432D01*
X155315321Y-66793414D01*
X155308375Y-66789595D01*
X155308372Y-66789593D01*
X155297566Y-66783652D01*
X155281047Y-66772801D01*
X155280583Y-66772441D01*
X155265041Y-66760386D01*
X155257772Y-66757241D01*
X155257768Y-66757238D01*
X155224463Y-66742826D01*
X155213813Y-66737609D01*
X155175060Y-66716305D01*
X155155437Y-66711267D01*
X155136734Y-66704863D01*
X155125420Y-66699967D01*
X155125419Y-66699967D01*
X155118145Y-66696819D01*
X155110322Y-66695580D01*
X155110312Y-66695577D01*
X155074476Y-66689901D01*
X155062856Y-66687495D01*
X155027711Y-66678472D01*
X155027710Y-66678472D01*
X155020030Y-66676500D01*
X154999776Y-66676500D01*
X154980065Y-66674949D01*
X154967886Y-66673020D01*
X154960057Y-66671780D01*
X154952165Y-66672526D01*
X154916039Y-66675941D01*
X154904181Y-66676500D01*
X151210082Y-66676500D01*
X151141961Y-66656498D01*
X151095468Y-66602842D01*
X151085364Y-66532568D01*
X151095888Y-66497249D01*
X151101959Y-66484230D01*
X151101961Y-66484225D01*
X151104284Y-66479243D01*
X151163543Y-66258087D01*
X151183498Y-66030000D01*
X151163543Y-65801913D01*
X151104284Y-65580757D01*
X151094281Y-65559305D01*
X151009849Y-65378238D01*
X151009846Y-65378233D01*
X151007523Y-65373251D01*
X150893879Y-65210951D01*
X150879357Y-65190211D01*
X150879355Y-65190208D01*
X150876198Y-65185700D01*
X150714300Y-65023802D01*
X150709789Y-65020643D01*
X150705576Y-65017108D01*
X150706527Y-65015974D01*
X150666529Y-64965929D01*
X150659224Y-64895310D01*
X150691258Y-64831951D01*
X150752462Y-64795970D01*
X150769517Y-64792918D01*
X150780316Y-64791745D01*
X150916705Y-64740615D01*
X151033261Y-64653261D01*
X151120615Y-64536705D01*
X151171745Y-64400316D01*
X151178500Y-64338134D01*
X151178500Y-62641866D01*
X151171745Y-62579684D01*
X151120615Y-62443295D01*
X151033261Y-62326739D01*
X150916705Y-62239385D01*
X150780316Y-62188255D01*
X150718134Y-62181500D01*
X149021866Y-62181500D01*
X148959684Y-62188255D01*
X148823295Y-62239385D01*
X148706739Y-62326739D01*
X148619385Y-62443295D01*
X148568255Y-62579684D01*
X148561500Y-62641866D01*
X148561500Y-62730500D01*
X148541498Y-62798621D01*
X148487842Y-62845114D01*
X148435500Y-62856500D01*
X148259594Y-62856500D01*
X148191473Y-62836498D01*
X148170499Y-62819595D01*
X147375071Y-62024166D01*
X146553652Y-61202747D01*
X146546112Y-61194461D01*
X146542000Y-61187982D01*
X146492348Y-61141356D01*
X146489507Y-61138602D01*
X146469770Y-61118865D01*
X146466573Y-61116385D01*
X146457551Y-61108680D01*
X146453397Y-61104779D01*
X146425321Y-61078414D01*
X146418375Y-61074595D01*
X146418372Y-61074593D01*
X146407566Y-61068652D01*
X146391047Y-61057801D01*
X146390583Y-61057441D01*
X146375041Y-61045386D01*
X146367772Y-61042241D01*
X146367768Y-61042238D01*
X146334463Y-61027826D01*
X146323813Y-61022609D01*
X146285060Y-61001305D01*
X146265437Y-60996267D01*
X146246734Y-60989863D01*
X146235420Y-60984967D01*
X146235419Y-60984967D01*
X146228145Y-60981819D01*
X146220322Y-60980580D01*
X146220312Y-60980577D01*
X146184476Y-60974901D01*
X146172856Y-60972495D01*
X146137711Y-60963472D01*
X146137710Y-60963472D01*
X146130030Y-60961500D01*
X146109776Y-60961500D01*
X146090065Y-60959949D01*
X146077886Y-60958020D01*
X146070057Y-60956780D01*
X146040786Y-60959547D01*
X146026039Y-60960941D01*
X146014181Y-60961500D01*
X143588768Y-60961500D01*
X143577585Y-60960973D01*
X143570092Y-60959298D01*
X143562166Y-60959547D01*
X143562165Y-60959547D01*
X143502002Y-60961438D01*
X143498044Y-60961500D01*
X143470144Y-60961500D01*
X143466154Y-60962004D01*
X143454320Y-60962936D01*
X143410111Y-60964326D01*
X143402495Y-60966539D01*
X143402493Y-60966539D01*
X143390652Y-60969979D01*
X143371293Y-60973988D01*
X143369983Y-60974154D01*
X143351203Y-60976526D01*
X143343837Y-60979442D01*
X143343831Y-60979444D01*
X143310098Y-60992800D01*
X143298868Y-60996645D01*
X143282828Y-61001305D01*
X143256407Y-61008981D01*
X143249584Y-61013016D01*
X143238966Y-61019295D01*
X143221213Y-61027992D01*
X143213568Y-61031019D01*
X143202383Y-61035448D01*
X143188705Y-61045386D01*
X143166612Y-61061437D01*
X143156695Y-61067951D01*
X143118638Y-61090458D01*
X143104317Y-61104779D01*
X143089284Y-61117619D01*
X143072893Y-61129528D01*
X143046516Y-61161413D01*
X143044712Y-61163593D01*
X143036722Y-61172374D01*
X142482742Y-61726353D01*
X142474463Y-61733887D01*
X142467982Y-61738000D01*
X142421357Y-61787651D01*
X142418602Y-61790493D01*
X142398865Y-61810230D01*
X142396385Y-61813427D01*
X142388682Y-61822447D01*
X142358414Y-61854679D01*
X142354595Y-61861625D01*
X142354593Y-61861628D01*
X142348652Y-61872434D01*
X142337801Y-61888953D01*
X142325386Y-61904959D01*
X142322241Y-61912228D01*
X142322238Y-61912232D01*
X142307826Y-61945537D01*
X142302609Y-61956187D01*
X142281305Y-61994940D01*
X142279334Y-62002615D01*
X142279334Y-62002616D01*
X142276267Y-62014562D01*
X142269863Y-62033266D01*
X142261819Y-62051855D01*
X142260580Y-62059678D01*
X142260577Y-62059688D01*
X142254901Y-62095524D01*
X142252495Y-62107144D01*
X142241500Y-62149970D01*
X142241500Y-62170224D01*
X142239949Y-62189934D01*
X142236780Y-62209943D01*
X142237526Y-62217835D01*
X142240941Y-62253961D01*
X142241500Y-62265819D01*
X142241500Y-82471233D01*
X142240973Y-82482416D01*
X142239298Y-82489909D01*
X142239547Y-82497835D01*
X142239547Y-82497836D01*
X142241438Y-82557986D01*
X142241500Y-82561945D01*
X142241500Y-82589856D01*
X142241997Y-82593790D01*
X142241997Y-82593791D01*
X142242005Y-82593856D01*
X142242938Y-82605693D01*
X142244327Y-82649889D01*
X142247787Y-82661797D01*
X142249978Y-82669339D01*
X142253987Y-82688700D01*
X142256526Y-82708797D01*
X142259445Y-82716168D01*
X142259445Y-82716170D01*
X142272804Y-82749912D01*
X142276649Y-82761142D01*
X142284017Y-82786502D01*
X142288982Y-82803593D01*
X142293015Y-82810412D01*
X142293017Y-82810417D01*
X142299293Y-82821028D01*
X142307988Y-82838776D01*
X142315448Y-82857617D01*
X142320110Y-82864033D01*
X142320110Y-82864034D01*
X142341436Y-82893387D01*
X142347952Y-82903307D01*
X142370458Y-82941362D01*
X142384779Y-82955683D01*
X142397619Y-82970716D01*
X142409528Y-82987107D01*
X142443605Y-83015298D01*
X142452384Y-83023288D01*
X142842500Y-83413404D01*
X142876526Y-83475716D01*
X142871461Y-83546531D01*
X142842500Y-83591594D01*
X142482742Y-83951352D01*
X142474462Y-83958887D01*
X142467982Y-83963000D01*
X142428967Y-84004547D01*
X142421357Y-84012651D01*
X142418602Y-84015493D01*
X142398865Y-84035230D01*
X142396385Y-84038427D01*
X142388682Y-84047447D01*
X142358414Y-84079679D01*
X142354595Y-84086625D01*
X142354593Y-84086628D01*
X142348652Y-84097434D01*
X142337801Y-84113953D01*
X142325386Y-84129959D01*
X142322241Y-84137228D01*
X142322238Y-84137232D01*
X142307826Y-84170537D01*
X142302609Y-84181187D01*
X142281305Y-84219940D01*
X142279334Y-84227615D01*
X142279334Y-84227616D01*
X142276267Y-84239562D01*
X142269863Y-84258266D01*
X142261819Y-84276855D01*
X142260580Y-84284678D01*
X142260577Y-84284688D01*
X142254901Y-84320524D01*
X142252495Y-84332144D01*
X142241500Y-84374970D01*
X142241500Y-84395224D01*
X142239949Y-84414934D01*
X142236780Y-84434943D01*
X141478500Y-84434943D01*
X141478500Y-59689500D01*
X141498502Y-59621379D01*
X141552158Y-59574886D01*
X141604500Y-59563500D01*
X168275500Y-59563500D01*
X168343621Y-59583502D01*
G37*
%TD.AperFunction*%
%TA.AperFunction,Conductor*%
G36*
X163892395Y-89553502D02*
G01*
X163931707Y-89593665D01*
X163999987Y-89705088D01*
X164146250Y-89873938D01*
X164318126Y-90016632D01*
X164388595Y-90057811D01*
X164391445Y-90059476D01*
X164440169Y-90111114D01*
X164453240Y-90180897D01*
X164426509Y-90246669D01*
X164386055Y-90280027D01*
X164373607Y-90286507D01*
X164369474Y-90289610D01*
X164369471Y-90289612D01*
X164212591Y-90407401D01*
X164194965Y-90420635D01*
X164040629Y-90582138D01*
X164037715Y-90586410D01*
X164037714Y-90586411D01*
X163986280Y-90661811D01*
X163914743Y-90766680D01*
X163899003Y-90800590D01*
X163831035Y-90947015D01*
X163820688Y-90969305D01*
X163760989Y-91184570D01*
X163737251Y-91406695D01*
X163737548Y-91411848D01*
X163737548Y-91411851D01*
X163745843Y-91555713D01*
X163750110Y-91629715D01*
X163751247Y-91634761D01*
X163751248Y-91634767D01*
X163783453Y-91777668D01*
X163778917Y-91848520D01*
X163749631Y-91894464D01*
X158699768Y-96944327D01*
X158637456Y-96978353D01*
X158566641Y-96973288D01*
X158514582Y-96933005D01*
X158512892Y-96934424D01*
X158509357Y-96930211D01*
X158506198Y-96925700D01*
X158344300Y-96763802D01*
X158339792Y-96760645D01*
X158339789Y-96760643D01*
X158178632Y-96647800D01*
X158156749Y-96632477D01*
X158151767Y-96630154D01*
X158151762Y-96630151D01*
X158117543Y-96614195D01*
X158064258Y-96567278D01*
X158044797Y-96499001D01*
X158065339Y-96431041D01*
X158117543Y-96385805D01*
X158151762Y-96369849D01*
X158151767Y-96369846D01*
X158156749Y-96367523D01*
X158280069Y-96281173D01*
X158339789Y-96239357D01*
X158339792Y-96239355D01*
X158344300Y-96236198D01*
X158506198Y-96074300D01*
X158517010Y-96058860D01*
X158598782Y-95942077D01*
X158637523Y-95886749D01*
X158639846Y-95881767D01*
X158639849Y-95881762D01*
X158731961Y-95684225D01*
X158731961Y-95684224D01*
X158734284Y-95679243D01*
X158751426Y-95615271D01*
X158792119Y-95463402D01*
X158792119Y-95463400D01*
X158793543Y-95458087D01*
X158813498Y-95230000D01*
X158793543Y-95001913D01*
X158764208Y-94892434D01*
X158735707Y-94786067D01*
X158735706Y-94786065D01*
X158734284Y-94780757D01*
X158702715Y-94713056D01*
X158639849Y-94578238D01*
X158639846Y-94578233D01*
X158637523Y-94573251D01*
X158525046Y-94412617D01*
X158509357Y-94390211D01*
X158509355Y-94390208D01*
X158506198Y-94385700D01*
X158344300Y-94223802D01*
X158339792Y-94220645D01*
X158339789Y-94220643D01*
X158178632Y-94107800D01*
X158156749Y-94092477D01*
X158151767Y-94090154D01*
X158151762Y-94090151D01*
X158117543Y-94074195D01*
X158064258Y-94027278D01*
X158044797Y-93959001D01*
X158065339Y-93891041D01*
X158117543Y-93845805D01*
X158151762Y-93829849D01*
X158151767Y-93829846D01*
X158156749Y-93827523D01*
X158280069Y-93741173D01*
X158315932Y-93716062D01*
X159933493Y-93716062D01*
X159942789Y-93728077D01*
X159993994Y-93763931D01*
X160003489Y-93769414D01*
X160200947Y-93861490D01*
X160211239Y-93865236D01*
X160421688Y-93921625D01*
X160432481Y-93923528D01*
X160649525Y-93942517D01*
X160660475Y-93942517D01*
X160877519Y-93923528D01*
X160888312Y-93921625D01*
X161098761Y-93865236D01*
X161109053Y-93861490D01*
X161306511Y-93769414D01*
X161316006Y-93763931D01*
X161368048Y-93727491D01*
X161376424Y-93717012D01*
X161369356Y-93703566D01*
X160667812Y-93002022D01*
X160653868Y-92994408D01*
X160652035Y-92994539D01*
X160645420Y-92998790D01*
X159939923Y-93704287D01*
X159933493Y-93716062D01*
X158315932Y-93716062D01*
X158339789Y-93699357D01*
X158339792Y-93699355D01*
X158344300Y-93696198D01*
X158506198Y-93534300D01*
X158517010Y-93518860D01*
X158634191Y-93351507D01*
X158637523Y-93346749D01*
X158639846Y-93341767D01*
X158639849Y-93341762D01*
X158731961Y-93144225D01*
X158731961Y-93144224D01*
X158734284Y-93139243D01*
X158748381Y-93086635D01*
X158792119Y-92923402D01*
X158792119Y-92923400D01*
X158793543Y-92918087D01*
X158813498Y-92690000D01*
X158793543Y-92461913D01*
X158765592Y-92357599D01*
X158767282Y-92286624D01*
X158807076Y-92227828D01*
X158872340Y-92199880D01*
X158887299Y-92198989D01*
X159252141Y-92198989D01*
X159320262Y-92218991D01*
X159366755Y-92272647D01*
X159376859Y-92342921D01*
X159373848Y-92357600D01*
X159363375Y-92396687D01*
X159361472Y-92407481D01*
X159342483Y-92624525D01*
X159342483Y-92635475D01*
X159361472Y-92852519D01*
X159363375Y-92863312D01*
X159419764Y-93073761D01*
X159423510Y-93084053D01*
X159515586Y-93281511D01*
X159521069Y-93291006D01*
X159557509Y-93343048D01*
X159567988Y-93351424D01*
X159581434Y-93344356D01*
X160294658Y-92631132D01*
X161019408Y-92631132D01*
X161019539Y-92632965D01*
X161023790Y-92639580D01*
X161729287Y-93345077D01*
X161741062Y-93351507D01*
X161753077Y-93342211D01*
X161788931Y-93291006D01*
X161794414Y-93281511D01*
X161886490Y-93084053D01*
X161890236Y-93073761D01*
X161946625Y-92863312D01*
X161948528Y-92852519D01*
X161967517Y-92635475D01*
X161967517Y-92624525D01*
X161948528Y-92407481D01*
X161946625Y-92396688D01*
X161890236Y-92186239D01*
X161886490Y-92175947D01*
X161794414Y-91978489D01*
X161788931Y-91968994D01*
X161752491Y-91916952D01*
X161742012Y-91908576D01*
X161728566Y-91915644D01*
X161027022Y-92617188D01*
X161019408Y-92631132D01*
X160294658Y-92631132D01*
X161370077Y-91555713D01*
X161376507Y-91543938D01*
X161367211Y-91531923D01*
X161316006Y-91496069D01*
X161306511Y-91490586D01*
X161168710Y-91426329D01*
X161115425Y-91379412D01*
X161095964Y-91311135D01*
X161116506Y-91243175D01*
X161132865Y-91223039D01*
X162785499Y-89570405D01*
X162847811Y-89536379D01*
X162874594Y-89533500D01*
X163824274Y-89533500D01*
X163892395Y-89553502D01*
G37*
%TD.AperFunction*%
M02*
