M48
; DRILL file {KiCad (6.0.5)} date Sun Feb  4 14:24:13 2024
; FORMAT={-:-/ absolute / metric / decimal}
; #@! TF.CreationDate,2024-02-04T14:24:13-06:00
; #@! TF.GenerationSoftware,Kicad,Pcbnew,(6.0.5)
; #@! TF.FileFunction,Plated,1,2,PTH
FMAT,2
METRIC
; #@! TA.AperFunction,Plated,PTH,ViaDrill
T1C0.400
; #@! TA.AperFunction,Plated,PTH,ComponentDrill
T2C0.800
; #@! TA.AperFunction,Plated,PTH,ComponentDrill
T3C0.900
; #@! TA.AperFunction,Plated,PTH,ComponentDrill
T4C1.000
%
G90
G05
T1
X147.32Y-88.9
X151.765Y-95.25
X153.035Y-95.25
X154.94Y-99.06
X159.805Y-77.47
X160.02Y-71.12
T2
X148.082Y-111.75
X149.87Y-63.49
X149.87Y-66.03
X149.87Y-68.57
X149.87Y-71.11
X149.87Y-73.65
X149.87Y-76.19
X149.87Y-78.73
X149.87Y-81.27
X149.88Y-87.61
X149.88Y-90.15
X149.88Y-92.69
X149.88Y-95.23
X149.88Y-97.77
X149.88Y-100.31
X149.88Y-102.85
X149.88Y-105.39
X155.702Y-111.75
X157.49Y-63.49
X157.49Y-66.03
X157.49Y-68.57
X157.49Y-71.11
X157.49Y-73.65
X157.49Y-76.19
X157.49Y-78.73
X157.49Y-81.27
X157.5Y-87.61
X157.5Y-90.15
X157.5Y-92.69
X157.5Y-95.23
X157.5Y-97.77
X157.5Y-100.31
X157.5Y-102.85
X157.5Y-105.39
X160.655Y-63.5
X160.655Y-68.5
X160.655Y-87.63
X160.655Y-92.63
T3
X158.115Y-111.76
X160.655Y-111.76
T4
X144.79Y-63.49
X144.79Y-66.03
X144.79Y-68.57
X144.79Y-71.11
X144.79Y-73.65
X144.79Y-76.19
X144.79Y-78.73
X144.79Y-81.27
X144.79Y-87.62
X144.79Y-90.16
X144.79Y-92.7
X144.79Y-95.24
X144.79Y-97.78
X144.79Y-100.32
X144.79Y-102.86
X144.79Y-105.4
X144.79Y-111.75
X165.1Y-76.2
X165.1Y-78.74
X165.1Y-81.28
X165.1Y-83.82
X165.1Y-86.36
X165.1Y-88.9
X165.1Y-91.44
X165.1Y-93.98
X165.1Y-104.14
X165.1Y-106.68
X165.1Y-109.22
X165.1Y-111.76
T0
M30
